<svg xmlns="http://www.w3.org/2000/svg" width="295.79132pt" height="225.00023pt" viewBox="0 0 295.79131 225.00023"><path fill="#6500ba" d="M138.486 60.499c.974.213 1.956.327 2.93.327a13.3 13.3 0 0 0 7.156-2.098 3.35 3.35 0 0 0 1.025-4.631 3.347 3.347 0 0 0-4.624-1.024 6.623 6.623 0 0 1-5.029.882 6.646 6.646 0 0 1-4.19-2.93 6.672 6.672 0 0 1-.882-5.037 6.624 6.624 0 0 1 2.938-4.183 6.69 6.69 0 0 1 8.031.655 3.352 3.352 0 0 0 4.73-.264 3.351 3.351 0 0 0-.256-4.73c-4.446-3.983-11.068-4.524-16.104-1.316a13.275 13.275 0 0 0-5.883 8.387 13.268 13.268 0 0 0 1.778 10.08 13.278 13.278 0 0 0 8.38 5.882M140.864 157.925l21.375-15.48a9.481 9.481 0 0 0 3.834-6.223 9.498 9.498 0 0 0-1.693-7.114c-3.087-4.268-9.076-5.22-13.337-2.134l-21.383 15.479c-10.335 7.483-16.759 19.078-17.605 31.818l-2.675 39.934a12.27 12.27 0 0 1-.256 1.665c-.092.362-.199.668-.334.889l-.107.199-.128.17-.292.314-.42.298-.576.278c-.853.348-2.027.605-3.265.79-1.252.17-2.589.291-3.94.426l-.05.008h-.008l-.285.057-.12.021a2.501 2.501 0 0 0-1.814 2.063 2.505 2.505 0 0 0 2.134 2.817c1.436.199 2.895.362 4.431.37 1.544.008 3.173-.071 4.987-.612.448-.121.931-.342 1.387-.534.462-.249.939-.483 1.38-.818.448-.341.889-.69 1.259-1.116.405-.413.711-.868 1.017-1.324.299-.462.49-.931.726-1.4l.341-.99.128-.377c.107-.44.22-.896.306-1.337l.15-1.088.028-.17.013-.15V214.542l2.667-39.821a36.001 36.001 0 0 1 14.853-26.839l21.375-15.478a2.852 2.852 0 0 1 3.977.64c.448.612.626 1.366.512 2.12a2.823 2.823 0 0 1-1.145 1.856L136.935 152.5a30.3 30.3 0 0 0-12.512 22.599l-2.789 41.833a3.345 3.345 0 0 0 3.116 3.564l.228.008a3.357 3.357 0 0 0 3.343-3.13l2.795-41.826a23.62 23.62 0 0 1 9.746-17.62" style="stroke-width:7.11331"/><path fill="#6500ba" d="M199.549 177.919c-8.188-12.754-10.94-27.941-7.747-42.766l.562-2.61c2.049-9.49.94-19.576-3.115-28.397l-14.035-30.509c-4.31-9.368-15.507-13.622-24.954-9.489l-13.622 5.968c-6.323 2.767-13.358 2.931-19.782.463l-17.114-6.772 5.057-10.4 21.625-44.771.192-.434c1.202-3.087-.306-6.573-3.365-7.782-3.058-1.216-6.508.299-7.71 3.386L97.493 50.164l-4.88 12.64a9.546 9.546 0 0 0-6.772 5.883 9.465 9.465 0 0 0 .192 7.305 9.19 9.19 0 0 0 .882 1.572l-7.348 19.021c-.348.91.043 1.97.94 2.411.938.47 2.076.079 2.539-.874l3.101-6.381 23.268 9.702a37.187 37.187 0 0 0 14.12 2.768 37.305 37.305 0 0 0 20.067-5.833l8.927-5.727a2.666 2.666 0 0 0 .81-3.699 2.666 2.666 0 0 0-3.698-.81l-8.927 5.719a31.942 31.942 0 0 1-17.18 4.986c-4.175 0-8.243-.797-12.078-2.362l-22.954-9.574 2.852-5.876 18.623 7.37c11.175 4.289 23.36 4.012 34.322-.79l13.579-5.947 14.013 30.46a26.264 26.264 0 0 1 1.8 16.396l-.57 2.61c-4.26 19.79-.583 40.07 10.35 57.106l16.247 25.31.013.007c.392.612.733 1.174.99 1.829.277.64.469 1.344.611 2.098.15.754.242 1.55.313 2.383.071.825.086 1.693.128 2.582l.013.17a2.511 2.511 0 0 0 1.75 2.263 2.498 2.498 0 0 0 3.144-1.636c.32-1.01.598-2.042.726-3.13.142-1.088.206-2.212.128-3.365a15.43 15.43 0 0 0-.647-3.5c-.363-1.159-.875-2.318-1.515-3.321l-.013-.008-.013-.013-16.233-25.288c-9.973-15.536-13.323-34.03-9.432-52.077l.562-2.61c1.486-6.886.676-14.206-2.262-20.6l-14.035-30.51c-1.508-3.272-5.413-4.758-8.707-3.314l-13.629 5.968c-9.332 4.083-19.71 4.325-29.2.683L93.74 74.77a2.832 2.832 0 0 1-1.587-1.501 2.868 2.868 0 0 1-.056-2.184c.569-1.465 2.219-2.198 3.656-1.643l18.672 7.384c8.102 3.115 16.951 2.916 24.904-.57l13.622-5.968c6.125-2.674 13.38.086 16.176 6.153l14.027 30.51a38.7 38.7 0 0 1 2.66 24.185l-.561 2.61c-3.571 16.567-.498 33.54 8.657 47.795l16.246 25.316a3.353 3.353 0 0 0 4.631 1.003 3.348 3.348 0 0 0 1.01-4.63zM92.232 219.034a195.54 195.54 0 0 1-44.16-6.402 195.51 195.51 0 0 1-46.94-19.241.758.758 0 0 0-1.032.277.765.765 0 0 0 .278 1.039 196.753 196.753 0 0 0 47.204 19.732 197.237 197.237 0 0 0 44.579 6.786 1.084 1.084 0 0 0 1.117-1.06v-.028a1.074 1.074 0 0 0-1.046-1.103" style="stroke-width:7.11331"/><path fill="#6500ba" d="M180.838 201.95a1.474 1.474 0 0 0-1.956-.711c-9.795 4.538-19.96 8.287-30.381 11.125a187.782 187.782 0 0 1-13.544 3.151 1.247 1.247 0 0 0-1.01 1.21v.028a1.238 1.238 0 0 0 1.458 1.23c4.624-.86 9.226-1.877 13.779-3.072 10.605-2.781 20.963-6.487 30.964-11.004a1.443 1.443 0 0 0 .704-1.928zM293.224 23.07c-1.06.184-1.785 1.187-1.793 2.261a193.01 193.01 0 0 1-1.7 25.068 194.366 194.366 0 0 1-4.9 24.761 193.795 193.795 0 0 1-19.192 46.614 191.84 191.84 0 0 1-30.545 40.14 193.017 193.017 0 0 1-21.504 18.652 1.63 1.63 0 0 0-.512 1.991l.02.043a1.658 1.658 0 0 0 2.476.647 195.994 195.994 0 0 0 53.556-59.46c17.279-29.755 26.683-64.105 26.661-98.57a2.182 2.182 0 0 0-2.568-2.147M6.612 183.92c27.67 16.134 59.638 24.848 91.726 24.983 1.274.008 2.561-.008 3.834-.029a1.11 1.11 0 0 0 1.096-1.138v-.028a1.11 1.11 0 0 0-1.138-1.096c-1.267.029-2.526.057-3.792.057-31.697.1-63.408-8.273-90.972-24.064a.765.765 0 0 0-1.031.277.765.765 0 0 0 .277 1.039M136.201 202.554a1.255 1.255 0 0 0-.982 1.088v.028a1.256 1.256 0 0 0 1.501 1.366c3.102-.64 6.182-1.351 9.248-2.155a183.611 183.611 0 0 0 29.52-10.52 1.478 1.478 0 0 0 .711-1.993l-.013-.028a1.437 1.437 0 0 0-1.906-.676 181.096 181.096 0 0 1-28.994 10.67c-3.009.818-6.04 1.558-9.084 2.22" style="stroke-width:7.11331"/><path fill="#6500ba" d="M226.296 153.1a180.607 180.607 0 0 1-18.452 16.19 1.65 1.65 0 0 0-.463 2.07l.02.043a1.652 1.652 0 0 0 2.455.562c6.68-5 13.032-10.457 18.971-16.325a183.54 183.54 0 0 0 29.52-38.092c16.19-27.87 25.011-60.05 24.99-92.338a2.185 2.185 0 0 0-2.611-2.141c-1.031.199-1.75 1.16-1.75 2.22a181.008 181.008 0 0 1-1.586 23.473 182.034 182.034 0 0 1-4.588 23.168 181.563 181.563 0 0 1-17.94 43.605 179.74 179.74 0 0 1-28.567 37.565M12.847 173.138c25.786 15.044 55.583 23.175 85.495 23.31 1.45.008 2.902-.008 4.353-.043a1.122 1.122 0 0 0 1.088-1.031v-.02a1.119 1.119 0 0 0-1.152-1.217c-1.423.043-2.852.07-4.282.078-29.527.107-59.062-7.69-84.748-22.393a.765.765 0 0 0-1.032.278.765.765 0 0 0 .278 1.038M171.012 179.228c-.313-.826-1.266-1.195-2.07-.826a168.523 168.523 0 0 1-26.874 9.895c-1.743.477-3.5.91-5.257 1.323a1.274 1.274 0 0 0-.981 1.202l-.008.029a1.286 1.286 0 0 0 1.558 1.287c1.8-.398 3.585-.825 5.37-1.294a170.978 170.978 0 0 0 27.557-9.817 1.38 1.38 0 0 0 .719-1.764z" style="stroke-width:7.11331"/><path fill="#6500ba" d="M217.494 144.287c-4.788 4.83-10.827 10.08-16.176 14.29a1.666 1.666 0 0 0-.534 1.879l.013.05c.384 1.06 1.693 1.45 2.59.76 5.505-4.246 11.687-9.553 16.638-14.44a171.523 171.523 0 0 0 27.542-35.51c15.095-25.991 23.332-56.002 23.31-86.113a2.182 2.182 0 0 0-2.61-2.141c-1.031.199-1.743 1.16-1.743 2.22-.02 7.305-.519 14.603-1.486 21.851a169.75 169.75 0 0 1-4.261 21.568 168.963 168.963 0 0 1-16.702 40.603 167.2 167.2 0 0 1-26.583 34.983M167.712 167.265c-.171-.967-1.224-1.494-2.113-1.067a156.548 156.548 0 0 1-26.746 10.065l-.669.178a1.3 1.3 0 0 0-.939.96l-.008.03c-.22.945.648 1.799 1.594 1.557l.704-.178a158.447 158.447 0 0 0 27.379-9.937c.597-.278.918-.925.804-1.572zM19.08 162.355c23.909 13.956 51.53 21.503 79.272 21.638 1.87.013 3.741-.02 5.605-.085a1.12 1.12 0 0 0 1.088-1.01l.008-.028a1.13 1.13 0 0 0-1.173-1.238c-1.843.07-3.685.12-5.527.128-27.351.107-54.716-7.106-78.517-20.721a.755.755 0 0 0-1.025.277.756.756 0 0 0 .27 1.039" style="stroke-width:7.11331"/><path fill="#6500ba" d="M208.69 135.474a150.89 150.89 0 0 1-9.262 8.578c-.42.363-.64.904-.583 1.458v.043c.15 1.366 1.757 2.006 2.81 1.131 3.3-2.76 6.501-5.648 9.567-8.67a158.789 158.789 0 0 0 25.559-32.936c14.013-24.107 21.667-51.941 21.638-79.882.013-1.345-1.209-2.405-2.603-2.141-1.039.199-1.75 1.16-1.75 2.219a156.256 156.256 0 0 1-1.373 20.223 156.469 156.469 0 0 1-19.398 57.568 154.98 154.98 0 0 1-24.605 32.409M25.316 151.57c22.023 12.869 47.474 19.833 73.04 19.968a141.31 141.31 0 0 0 6.913-.135 1.135 1.135 0 0 0 1.082-.996l.008-.02a1.132 1.132 0 0 0-1.195-1.274 144.58 144.58 0 0 1-6.8.192c-25.175.107-50.377-6.523-72.286-19.05a.761.761 0 0 0-.761 1.317M145.05 164.18a147.682 147.682 0 0 0 20.074-8.287c.62-.306.925-1.003.776-1.679l-.013-.035c-.214-.96-1.302-1.437-2.177-.982a145.44 145.44 0 0 1-19.526 8.373l-.683.519-.02.035c-.719 1.082.334 2.462 1.564 2.056" style="stroke-width:7.11331"/><path fill="#6500ba" d="M199.887 126.66c-.44.448-.896.882-1.344 1.323a1.722 1.722 0 0 0-.534 1.18v.05c-.077 1.601 1.828 2.462 2.988 1.36.477-.456.953-.911 1.423-1.373A146.584 146.584 0 0 0 226 98.847c12.925-22.23 19.996-47.894 19.967-73.658a2.181 2.181 0 0 0-2.61-2.142c-1.032.2-1.743 1.16-1.75 2.22a142.37 142.37 0 0 1-1.26 18.594 145.491 145.491 0 0 1-3.62 18.38 144.428 144.428 0 0 1-14.212 34.593 142.724 142.724 0 0 1-22.628 29.826" style="stroke-width:7.11331"/><path fill="#6500ba" d="M197.595 110.757a1.81 1.81 0 0 0-.42 1.43l.013.064c.228 1.537 2.155 2.127 3.18.953a134.375 134.375 0 0 0 14.86-20.593c11.829-20.344 18.316-43.839 18.288-67.434.013-1.344-1.217-2.404-2.61-2.141-1.032.2-1.744 1.167-1.744 2.22a132.678 132.678 0 0 1-1.152 16.972 132.022 132.022 0 0 1-3.308 16.78 131.574 131.574 0 0 1-12.967 31.59c-4.055 7.142-8.8 13.9-14.135 20.16M31.55 140.788c20.145 11.78 43.427 18.16 66.815 18.295 3.073.021 6.146-.078 9.212-.27a1.165 1.165 0 0 0 1.074-1.06v-.028c.064-.705-.526-1.288-1.238-1.238-3.009.22-6.025.348-9.048.363-22.997.106-46.023-5.94-66.054-17.378a.768.768 0 0 0-1.031.277.757.757 0 0 0 .27 1.039M37.785 130.004c18.26 10.684 39.373 16.482 60.585 16.61 4.58.028 10.805-.363 15.364-.854l.804-.448.02-.029c.662-.825-.012-2.02-1.06-1.899-4.473.54-10.612.975-15.122.996-20.82.114-41.684-5.342-59.837-15.692a.761.761 0 0 0-1.025.278.756.756 0 0 0 .27 1.038" style="stroke-width:7.11331"/><path fill="#6500ba" d="M193.327 96.028a1.882 1.882 0 0 0-.256 1.771l.02.064c.512 1.409 2.39 1.7 3.3.505a121.156 121.156 0 0 0 8.032-12c10.748-18.459 16.66-39.785 16.63-61.196a2.188 2.188 0 0 0-2.873-2.07c-.868.263-1.444 1.089-1.48 1.992v.071l-.277 7.732-.775 7.697c-.42 2.546-.797 5.1-1.245 7.64-.584 2.51-1.11 5.036-1.743 7.54a118.903 118.903 0 0 1-11.723 28.581 117.661 117.661 0 0 1-7.611 11.673M44.02 119.221c16.375 9.596 35.318 14.81 54.36 14.938 9.518.071 19.05-1.117 28.283-3.493a110.593 110.593 0 0 0 26.483-10.69 110.692 110.692 0 0 0 8.571-5.421c.534-.37.797-1.025.669-1.658l-.013-.035c-.242-1.153-1.58-1.693-2.532-1.003a106.789 106.789 0 0 1-8.252 5.406 107.48 107.48 0 0 1-25.608 10.848c-8.963 2.497-18.274 3.763-27.6 3.812-18.644.114-37.33-4.758-53.598-14.02a.768.768 0 0 0-1.032.278.756.756 0 0 0 .27 1.038M187.665 82.272a1.908 1.908 0 0 0 .071 2.163l.078.114c.783 1.067 2.405 1.031 3.13-.079a100.442 100.442 0 0 0 2.696-4.339c9.66-16.574 14.988-35.73 14.96-54.972a2.195 2.195 0 0 0-2.896-2.063c-.86.278-1.437 1.103-1.458 2.006l-.013.05-.242 6.921-.697 6.886c-.37 2.276-.704 4.567-1.11 6.836-.519 2.248-.988 4.51-1.55 6.75a106.422 106.422 0 0 1-10.485 25.573 101.71 101.71 0 0 1-2.49 4.154M181.125 70.625l.057.114c.747 1.366 2.717 1.373 3.45 0a98.323 98.323 0 0 0 8.095-20.323c.534-2.056.989-4.14 1.48-6.21.391-2.091.725-4.197 1.081-6.302.235-2.12.427-4.24.633-6.36l.22-6.387a2.178 2.178 0 0 0-2.49-2.234c-1.073.15-1.827 1.131-1.863 2.212v.013l-.213 6.104h-.013l-.612 6.074c-.327 2.013-.626 4.026-.974 6.032-.463 1.985-.875 3.977-1.373 5.954a94.047 94.047 0 0 1-7.498 19.37 2.067 2.067 0 0 0 .013 1.942" style="stroke-width:7.11331"/><path fill="#6500ba" d="M50.256 108.438c14.49 8.515 31.263 13.145 48.13 13.266a97.68 97.68 0 0 0 25.06-3.073 97.736 97.736 0 0 0 23.48-9.446 96.101 96.101 0 0 0 10.386-6.793 1.674 1.674 0 0 0 .44-2.149l-.02-.028c-.498-.89-1.671-1.103-2.475-.477a95.29 95.29 0 0 1-9.888 6.737 95.177 95.177 0 0 1-22.606 9.61c-7.91 2.212-16.14 3.336-24.37 3.386-16.475.114-32.992-4.176-47.382-12.349a.761.761 0 0 0-1.024.277.756.756 0 0 0 .27 1.039" style="stroke-width:7.11331"/><path fill="#6500ba" d="M56.501 97.636c12.612 7.419 27.209 11.473 41.898 11.609 2.902.028 5.804-.1 8.692-.377.968-.093 1.394-1.238.754-1.97l-.02-.022a1.15 1.15 0 0 0-.99-.37c-2.802.314-5.612.491-8.436.506-14.297.106-28.638-3.607-41.136-10.692a.77.77 0 0 0-1.031.278.756.756 0 0 0 .27 1.038M173.103 60.399l.013.008c1.003.832 2.525.47 3.066-.719a85.345 85.345 0 0 0 4.502-12.505c.47-1.792.868-3.613 1.302-5.42.342-1.821.626-3.664.94-5.492l.554-5.548.192-5.577c.05-1.444-1.316-2.603-2.845-2.155-.89.263-1.48 1.11-1.508 2.034l-.013.114-.185 5.292-.527 5.264c-.291 1.743-.54 3.486-.846 5.228-.398 1.715-.754 3.443-1.18 5.157a81.307 81.307 0 0 1-4.07 11.723 2.21 2.21 0 0 0 .605 2.597" style="stroke-width:7.11331"/></svg>