<svg xmlns="http://www.w3.org/2000/svg" xml:space="preserve" width="1220" height="484" overflow="hidden"><defs><clipPath id="a"><path d="M30 118h1220v484H30z"/></clipPath></defs><g fill="#00022E" clip-path="url(#a)" transform="translate(-30 -118)"><path d="M155.881 248.166c11.579 4.155 35.25 15.013 48.65 21.502 15.16 7.345 29.911 15.098 44.255 26.855 9.563 7.86 11 13.728 8.855 13.578-2.144-.129-10.056-1.135-24.164-5.268-23.028-6.725-48.307-14.649-70.306-24.115-7.354-3.169-18.975-8.095-29.202-12.528-.451.642-.902 1.285-1.33 1.927-7.011 10.151-12.993 19.66-15.438 25.742-1.886 4.755 10.42 2.12 4.096 5.033-7.398 3.405-31.776 18.139-45.306 28.141-.493-8.395 6.497-20.26 12.265-28.698 4.824-7.088 14.215-18.182 26.908-32.98 1.244-1.435 2.81-3.298 4.653-5.483-3.366-1.542-5.768-2.762-6.69-3.384-4.716-3.276-5.767-7.709-5.06-12.228s4.932-9.102 13.38-13.406c3.495-1.778 18.59-8.096 35.55-15.163 11.256-13.428 20.219-24.136 20.219-24.136s-37.308 10.237-55.79 17.84c-18.462 7.603-40.203 22.444-42.025 23.45-2.295 1.264-5.103 1.157-6.754.364-1.802-.878-3.324-2.998-3.41-5.739-.107-2.763 2.08-29.49 5.49-32.98 3.387-3.47 24.614-17.176 40.03-21.48-4.224 5.546-7.719 9.38-12.136 18.438 33.641-17.111 87.502-31.374 110.744-30.239-2.701 9.145-17.796 27.648-31.668 44.16 10.698-4.498 20.219-8.567 25.88-11.158 18.61-8.502 68.997-27.605 77.916-28.826 5.961-.792 4.91 2.12 2.423 4.262-2.466 2.12-16.896 13.62-19.554 15.72-2.66 2.098-4.588 3.147-6.883 2.976s-9.863-1.37-12.179-.364c-2.293.985-19.146 9.38-33.105 16.683s-53.881 30.282-58.834 33.366c-4.953 3.105-5.018 6.832-1.459 8.095Z"/><path d="M252.003 230.712h51.565v16.961h-51.565zM321.922 181.99h49.1c16.574 0 29.203 2.7 37.909 8.096 8.705 5.397 13.036 13.128 13.036 23.215 0 6.896-2.015 12.592-6.025 17.111s-9.82 7.496-17.454 8.952v.621c9.263 1.542 16.318 4.862 21.141 9.937 4.825 5.097 7.248 11.543 7.248 19.36 0 10.58-3.646 18.76-10.957 24.521-7.31 5.761-17.603 8.631-30.876 8.631h-12.049l-18.375-23.6v23.6H321.9V181.991Zm48.628 48.101c12.458 0 18.675-3.748 18.675-11.265 0-3.49-1.629-6.168-4.866-8.01-3.238-1.841-8.169-2.783-14.752-2.783h-14.965v22.058zm2.466 46.108c7.312 0 12.65-.985 16.06-2.934 3.387-1.948 5.103-4.925 5.103-8.951s-1.844-7.025-5.553-9.338c-3.71-2.313-8.899-3.469-15.589-3.469h-18.374v24.671h18.374ZM470.124 181.99h44.147l41.382 120.423h-35.657l-6.948-23.601h-22.234l-5.103-26.063h19.597l-11.728-39.94-26.715 89.582h-35.657l38.894-120.422ZM587 299.329c-8.749-4.005-15.438-9.552-20.07-16.662-4.63-7.11-6.84-15.205-6.646-24.371h35.357c-.216 5.439 1.629 9.808 5.488 13.106s9.134 4.926 15.824 4.926c5.36 0 9.52-.707 12.5-2.163 2.98-1.435 4.482-3.491 4.482-6.168s-2.059-5.29-6.175-7.56c-4.332-2.27-11.472-5.139-21.464-8.63-8.854-3.084-16.252-6.211-22.234-9.402-12.242-6.682-18.375-15.783-18.375-27.284 0-7.088 2.1-13.363 6.325-18.803 4.224-5.547 10.142-9.808 17.754-12.807 7.61-2.976 16.316-4.476 26.093-4.476 10.592 0 19.812 1.842 27.638 5.547 7.933 3.705 13.98 8.738 18.14 15.12s6.153 13.577 5.938 21.587H632.22c.214-4.005-1.158-7.217-4.095-9.637-2.938-2.42-7.075-3.62-12.436-3.62-4.224 0-7.59.686-10.12 2.078s-3.774 3.17-3.774 5.311c0 1.65.558 3.041 1.694 4.155 1.437 1.242 3.452 2.356 6.025 3.383 2.98 1.328 7.504 3.042 13.593 5.097l6.175 2.313c14.624 5.354 25.065 10.944 31.347 16.812 6.283 5.868 9.413 12.892 9.413 21.116 0 7.496-2.144 14.027-6.41 19.574-4.267 5.547-10.4 9.851-18.376 12.871-7.976 3.041-17.41 4.54-28.323 4.54s-21.313-2.013-29.954-6.018ZM681.92 181.99h87.072v26.214H714.96v20.516h50.945v26.064h-41.832l-7.87-18.504h-1.243v39.62h55.104v26.513H681.92zM785.202 181.99h49.1c16.574 0 29.203 2.7 37.909 8.096 8.705 5.397 13.036 13.128 13.036 23.215 0 6.896-2.015 12.592-6.025 17.111s-9.82 7.496-17.454 8.952v.621c9.263 1.542 16.318 4.862 21.141 9.937 4.825 5.097 7.248 11.543 7.248 19.36 0 10.58-3.646 18.76-10.957 24.521s-17.603 8.631-30.876 8.631h-12.049l-18.375-23.6v23.6h-32.72V181.991Zm48.628 48.101c12.458 0 18.675-3.748 18.675-11.265 0-3.49-1.629-6.168-4.866-8.01-3.238-1.841-8.148-2.783-14.752-2.783h-14.965v22.058zm2.466 46.108c7.312 0 12.65-.985 16.06-2.934 3.387-1.948 5.103-4.925 5.103-8.951s-1.844-7.025-5.553-9.338c-3.71-2.313-8.899-3.469-15.589-3.469h-18.374v24.671h18.374ZM933.404 181.99h44.147l41.382 120.423h-35.657l-6.948-23.601h-22.234l-5.103-26.063h19.597l-11.728-39.94-26.715 89.582h-35.657l38.894-120.422ZM1027.424 181.99h33.04v92.046h52.793v28.377h-85.833zM1123.589 181.99h33.039v92.046h52.792v28.377h-85.831zM369.757 532.784c-8.748-4.005-15.438-9.552-20.068-16.662-4.632-7.089-6.84-15.205-6.647-24.371h35.356c-.215 5.439 1.63 9.808 5.49 13.106 3.859 3.298 9.133 4.926 15.823 4.926 5.36 0 9.52-.707 12.5-2.163 2.98-1.435 4.48-3.491 4.48-6.168s-2.058-5.289-6.174-7.56c-4.332-2.27-11.471-5.139-21.463-8.63-8.855-3.084-16.252-6.211-22.234-9.402-12.243-6.682-18.376-15.783-18.376-27.284 0-7.088 2.102-13.363 6.326-18.803 4.224-5.547 10.142-9.808 17.753-12.807 7.612-2.976 16.317-4.476 26.094-4.476 10.592 0 19.812 1.842 27.638 5.547 7.933 3.705 13.98 8.738 18.14 15.12 4.158 6.382 6.153 13.578 5.938 21.587h-35.356c.214-4.005-1.158-7.217-4.095-9.637-2.938-2.42-7.076-3.619-12.437-3.619-4.224 0-7.59.685-10.12 2.077s-3.773 3.17-3.773 5.311c0 1.649.558 3.041 1.694 4.155 1.437 1.242 3.452 2.356 6.025 3.384 2.98 1.327 7.504 3.041 13.593 5.097l6.175 2.312c14.624 5.354 25.065 10.944 31.347 16.812 6.283 5.868 9.413 12.892 9.413 21.116 0 7.496-2.144 14.027-6.411 19.574s-10.398 9.852-18.375 12.871c-7.976 3.041-17.41 4.54-28.324 4.54-10.913 0-21.312-2.013-29.954-6.018ZM464.7 415.424h87.072v26.214H497.74v20.516h50.944v26.063h-41.832l-7.868-18.503h-1.244v39.619h55.103v26.513H464.7zM567.981 415.424h52.016c9.156 0 17.09 1.649 23.778 4.926 6.69 3.298 11.857 8.01 15.525 14.177 3.644 6.168 5.488 13.471 5.488 21.888 0 16.233-6.733 27.712-20.219 34.394l25.322 45.016h-35.035l-21.913-39.791-8.64-15.569-2.938-5.697h-.621v61.057h-32.72V415.403Zm44.148 55.211q18.525 0 18.525-13.878c0-10.172-6.175-15.269-18.525-15.269h-11.428v29.147zM682.37 415.424h32.269v120.422h-32.72l.472-120.422ZM733.785 415.424h87.074v26.214h-54.033v20.516h50.945v26.063H775.94l-7.868-18.503h-1.245v39.619h55.104v26.513h-88.145zM858.21 532.784c-8.75-4.005-15.438-9.552-20.07-16.662s-6.84-15.205-6.646-24.371h35.356c-.214 5.439 1.63 9.808 5.489 13.106s9.134 4.926 15.823 4.926c5.36 0 9.52-.707 12.501-2.163 2.98-1.435 4.481-3.491 4.481-6.168s-2.058-5.289-6.175-7.56c-4.33-2.27-11.471-5.139-21.463-8.63-8.855-3.084-16.252-6.211-22.234-9.402-12.243-6.682-18.375-15.783-18.375-27.284 0-7.088 2.1-13.363 6.324-18.803 4.224-5.547 10.142-9.808 17.754-12.807 7.611-2.976 16.317-4.476 26.094-4.476 10.592 0 19.811 1.842 27.638 5.547 7.933 3.705 13.98 8.738 18.14 15.12 4.159 6.382 6.152 13.578 5.938 21.587h-35.357c.215-4.005-1.157-7.217-4.094-9.637s-7.076-3.619-12.436-3.619c-4.224 0-7.591.685-10.121 2.077s-3.773 3.17-3.773 5.311c0 1.649.557 3.041 1.694 4.155 1.436 1.242 3.452 2.356 6.025 3.384 2.98 1.327 7.504 3.041 13.593 5.097l6.175 2.312c14.623 5.354 25.066 10.944 31.347 16.812s9.413 12.892 9.413 21.116c0 7.496-2.145 14.027-6.41 19.574-4.268 5.547-10.4 9.852-18.376 12.871-7.977 3.041-17.41 4.54-28.324 4.54-10.913 0-21.313-2.013-29.953-6.018ZM32.144 118H1252.15v21.416H32.144ZM32.144 349.292H1252.15v21.416H32.144ZM32.144 580.584H1252.15V602H32.144Z"/></g></svg>