<svg xmlns="http://www.w3.org/2000/svg" xml:space="preserve" width="447.963" height="276.756" x="0px" y="0px" viewBox="0 0 447.963 276.756"><defs><linearGradient id="V" x1="224.15331" x2="224.15331" y1="257.62601" y2="185.21941" gradientTransform="matrix(1 0 0 -1 .706 352.748)" gradientUnits="userSpaceOnUse"><stop offset="0.2707" style="stop-color:#0076bc"/><stop offset="0.4093" style="stop-color:#045fa3"/><stop offset="0.8119" style="stop-color:#0e205d"/><stop offset="1" style="stop-color:#120742"/></linearGradient><linearGradient id="a" x1="195.3438" x2="306.42361" y1="119.5205" y2="205.4911" gradientTransform="matrix(1 0 0 -1 .706 352.748)" gradientUnits="userSpaceOnUse"><stop offset="0" style="stop-color:#6cc3ee"/><stop offset="0.3537" style="stop-color:#0076bc"/><stop offset="0.7202" style="stop-color:#0a3574"/><stop offset="1" style="stop-color:#120742"/></linearGradient><linearGradient id="c" x1="113.9766" x2="305.57791" y1="159.60159" y2="70.547302" gradientTransform="matrix(1 0 0 -1 .706 352.748)" gradientUnits="userSpaceOnUse"><stop offset="0.0961" style="stop-color:#fff"/><stop offset="0.1484" style="stop-color:#f4f6f8"/><stop offset="0.2406" style="stop-color:#d7dfe4"/><stop offset="0.3428" style="stop-color:#afc0c9"/><stop offset="0.3898" style="stop-color:#c1ced5"/><stop offset="0.4765" style="stop-color:#dce3e7"/><stop offset="0.5645" style="stop-color:#eff3f5"/><stop offset="0.6536" style="stop-color:#fbfcfc"/><stop offset="0.7455" style="stop-color:#fff"/><stop offset="0.8049" style="stop-color:#eff1f2"/><stop offset="0.9909" style="stop-color:#bfc7cc"/></linearGradient><linearGradient id="g" x1="143.4492" x2="333.56369" y1="357.38181" y2="269.01859" gradientTransform="matrix(1 0 0 -1 .706 352.748)" gradientUnits="userSpaceOnUse"><stop offset="0.0091" style="stop-color:#bfc7cc"/><stop offset="0.1951" style="stop-color:#eff1f2"/><stop offset="0.2545" style="stop-color:#fff"/><stop offset="0.3464" style="stop-color:#fbfcfc"/><stop offset="0.4355" style="stop-color:#eff3f5"/><stop offset="0.5235" style="stop-color:#dce3e7"/><stop offset="0.6102" style="stop-color:#c1ced5"/><stop offset="0.6572" style="stop-color:#afc0c9"/><stop offset="0.7594" style="stop-color:#d7dfe4"/><stop offset="0.8516" style="stop-color:#f4f6f8"/><stop offset="0.9039" style="stop-color:#fff"/></linearGradient><linearGradient id="i" x1="251.89259" x2="141.30969" y1="309.24219" y2="222.89079" gradientTransform="matrix(1 0 0 -1 .706 352.748)" gradientUnits="userSpaceOnUse"><stop offset="0" style="stop-color:#0076bc"/><stop offset="0.4323" style="stop-color:#00467d"/><stop offset="0.5458" style="stop-color:#043970"/><stop offset="1" style="stop-color:#120742"/></linearGradient><linearGradient id="s" x1="179.9097" x2="204.96291" y1="172.3652" y2="155.4389" gradientTransform="matrix(1 0 0 -1 .706 352.748)" gradientUnits="userSpaceOnUse"><stop offset="0.0626" style="stop-color:#fff"/><stop offset="0.0941" style="stop-color:#eff2f4"/><stop offset="0.1555" style="stop-color:#c4d2d9"/><stop offset="0.1841" style="stop-color:#afc1cb"/><stop offset="0.3428" style="stop-color:#afc0c9"/><stop offset="0.3746" style="stop-color:#bac9d1"/><stop offset="0.4717" style="stop-color:#d8e0e5"/><stop offset="0.5672" style="stop-color:#eef1f3"/><stop offset="0.6597" style="stop-color:#fbfcfc"/><stop offset="0.7455" style="stop-color:#fff"/><stop offset="0.8268" style="stop-color:#edeff1"/><stop offset="0.9886" style="stop-color:#bfc7cc"/><stop offset="0.9909" style="stop-color:#bfc7cc"/></linearGradient><linearGradient id="t" x1="141.25681" x2="167.8295" y1="170.8428" y2="156.1185" gradientTransform="matrix(1 0 0 -1 .706 352.748)" gradientUnits="userSpaceOnUse"><stop offset="0.0626" style="stop-color:#fff"/><stop offset="0.0941" style="stop-color:#eff2f4"/><stop offset="0.1555" style="stop-color:#c4d2d9"/><stop offset="0.1841" style="stop-color:#afc1cb"/><stop offset="0.3428" style="stop-color:#afc0c9"/><stop offset="0.3746" style="stop-color:#bac9d1"/><stop offset="0.4717" style="stop-color:#d8e0e5"/><stop offset="0.5672" style="stop-color:#eef1f3"/><stop offset="0.6597" style="stop-color:#fbfcfc"/><stop offset="0.7455" style="stop-color:#fff"/><stop offset="0.8268" style="stop-color:#edeff1"/><stop offset="0.9886" style="stop-color:#bfc7cc"/><stop offset="0.9909" style="stop-color:#bfc7cc"/></linearGradient><linearGradient id="u" x1="120.4507" x2="143.3006" y1="160.82471" y2="153.8844" gradientTransform="matrix(1 0 0 -1 .706 352.748)" gradientUnits="userSpaceOnUse"><stop offset="0.0626" style="stop-color:#fff"/><stop offset="0.0941" style="stop-color:#eff2f4"/><stop offset="0.1555" style="stop-color:#c4d2d9"/><stop offset="0.1841" style="stop-color:#afc1cb"/><stop offset="0.3428" style="stop-color:#afc0c9"/><stop offset="0.3746" style="stop-color:#bac9d1"/><stop offset="0.4717" style="stop-color:#d8e0e5"/><stop offset="0.5672" style="stop-color:#eef1f3"/><stop offset="0.6597" style="stop-color:#fbfcfc"/><stop offset="0.7455" style="stop-color:#fff"/><stop offset="0.8268" style="stop-color:#edeff1"/><stop offset="0.9886" style="stop-color:#bfc7cc"/><stop offset="0.9909" style="stop-color:#bfc7cc"/></linearGradient><linearGradient id="v" x1="227.40871" x2="246.1973" y1="169.3403" y2="144.79539" gradientTransform="matrix(1 0 0 -1 .706 352.748)" gradientUnits="userSpaceOnUse"><stop offset="0.0626" style="stop-color:#fff"/><stop offset="0.0941" style="stop-color:#eff2f4"/><stop offset="0.1555" style="stop-color:#c4d2d9"/><stop offset="0.1841" style="stop-color:#afc1cb"/><stop offset="0.3428" style="stop-color:#afc0c9"/><stop offset="0.3746" style="stop-color:#bac9d1"/><stop offset="0.4717" style="stop-color:#d8e0e5"/><stop offset="0.5672" style="stop-color:#eef1f3"/><stop offset="0.6597" style="stop-color:#fbfcfc"/><stop offset="0.7455" style="stop-color:#fff"/><stop offset="0.8268" style="stop-color:#edeff1"/><stop offset="0.9886" style="stop-color:#bfc7cc"/><stop offset="0.9909" style="stop-color:#bfc7cc"/></linearGradient><linearGradient id="w" x1="265.60989" x2="280.84698" y1="152.9102" y2="134.6255" gradientTransform="matrix(1 0 0 -1 .706 352.748)" gradientUnits="userSpaceOnUse"><stop offset="0.0091" style="stop-color:#bfc7cc"/><stop offset="0.0368" style="stop-color:#a2b3bc"/><stop offset="0.066" style="stop-color:#8ba3b0"/><stop offset="0.0936" style="stop-color:#7d99a8"/><stop offset="0.1175" style="stop-color:#7896a5"/><stop offset="0.1402" style="stop-color:#7c99a8"/><stop offset="0.1639" style="stop-color:#89a3b1"/><stop offset="0.1882" style="stop-color:#9eb4bf"/><stop offset="0.2128" style="stop-color:#bbcad2"/><stop offset="0.2375" style="stop-color:#e1e7eb"/><stop offset="0.2545" style="stop-color:#fff"/><stop offset="0.6572" style="stop-color:#afc0c9"/><stop offset="0.8159" style="stop-color:#afc1cb"/><stop offset="0.8445" style="stop-color:#c4d2d9"/><stop offset="0.9059" style="stop-color:#eff2f4"/><stop offset="0.9374" style="stop-color:#fff"/></linearGradient><linearGradient id="x" x1="288.28271" x2="295.05469" y1="142.4326" y2="124.3151" gradientTransform="matrix(1 0 0 -1 .706 352.748)" gradientUnits="userSpaceOnUse"><stop offset="0.0626" style="stop-color:#fff"/><stop offset="0.0941" style="stop-color:#eff2f4"/><stop offset="0.1555" style="stop-color:#c4d2d9"/><stop offset="0.1841" style="stop-color:#afc1cb"/><stop offset="0.3428" style="stop-color:#afc0c9"/><stop offset="0.7455" style="stop-color:#fff"/><stop offset="0.7571" style="stop-color:#e1e7eb"/><stop offset="0.7739" style="stop-color:#bbcad2"/><stop offset="0.7907" style="stop-color:#9eb4bf"/><stop offset="0.8072" style="stop-color:#89a3b1"/><stop offset="0.8234" style="stop-color:#7c99a8"/><stop offset="0.8388" style="stop-color:#7896a5"/><stop offset="0.8566" style="stop-color:#6e8b99"/><stop offset="0.8845" style="stop-color:#647f8d"/><stop offset="0.9112" style="stop-color:#607b89"/><stop offset="0.9261" style="stop-color:#657f8c"/><stop offset="0.9433" style="stop-color:#738a96"/><stop offset="0.9617" style="stop-color:#8a9ca6"/><stop offset="0.9806" style="stop-color:#aab6bd"/><stop offset="0.9909" style="stop-color:#bfc7cc"/></linearGradient><linearGradient id="J" x1="150.5786" x2="152.94701" y1="305.96481" y2="278.7135" gradientTransform="matrix(1 0 0 -1 .706 352.748)" gradientUnits="userSpaceOnUse"><stop offset="0.0626" style="stop-color:#fff"/><stop offset="0.0941" style="stop-color:#eff2f4"/><stop offset="0.1555" style="stop-color:#c4d2d9"/><stop offset="0.1841" style="stop-color:#afc1cb"/><stop offset="0.3428" style="stop-color:#afc0c9"/><stop offset="0.7455" style="stop-color:#fff"/><stop offset="0.8053" style="stop-color:#e4e8ea"/><stop offset="0.8689" style="stop-color:#cfd5d9"/><stop offset="0.9314" style="stop-color:#c3cacf"/><stop offset="0.9909" style="stop-color:#bfc7cc"/></linearGradient><linearGradient id="X" x1="339.7681" x2="332.03259" y1="237.8271" y2="164.0173" gradientTransform="matrix(1 0 0 -1 .706 352.748)" gradientUnits="userSpaceOnUse"><stop offset="0.2707" style="stop-color:#0076bc"/><stop offset="0.4093" style="stop-color:#045fa3"/><stop offset="0.8119" style="stop-color:#0e205d"/><stop offset="1" style="stop-color:#120742"/></linearGradient><linearGradient id="Y" x1="25.1089" x2="78.902298" y1="222.59081" y2="222.59081" gradientTransform="matrix(1 0 0 -1 .706 352.748)" gradientUnits="userSpaceOnUse"><stop offset="0" style="stop-color:#6cc3ee"/><stop offset="0.3537" style="stop-color:#0076bc"/><stop offset="0.7202" style="stop-color:#0a3574"/><stop offset="1" style="stop-color:#120742"/></linearGradient><linearGradient id="Z" x1="71.617203" x2="122.7368" y1="216.7529" y2="216.7529" gradientTransform="matrix(1 0 0 -1 .706 352.748)" gradientUnits="userSpaceOnUse"><stop offset="0" style="stop-color:#6cc3ee"/><stop offset="0.3537" style="stop-color:#0076bc"/><stop offset="0.7202" style="stop-color:#0a3574"/><stop offset="1" style="stop-color:#120742"/></linearGradient><linearGradient id="aa" x1="119.2998" x2="168.7681" y1="217.19141" y2="217.19141" gradientTransform="matrix(1 0 0 -1 .706 352.748)" gradientUnits="userSpaceOnUse"><stop offset="0" style="stop-color:#6cc3ee"/><stop offset="0.3537" style="stop-color:#0076bc"/><stop offset="0.7202" style="stop-color:#0a3574"/><stop offset="1" style="stop-color:#120742"/></linearGradient><linearGradient id="ab" x1="241.8062" x2="291.27689" y1="217.6328" y2="217.6328" gradientTransform="matrix(1 0 0 -1 .706 352.748)" gradientUnits="userSpaceOnUse"><stop offset="0" style="stop-color:#6cc3ee"/><stop offset="0.3537" style="stop-color:#0076bc"/><stop offset="0.7202" style="stop-color:#0a3574"/><stop offset="1" style="stop-color:#120742"/></linearGradient><linearGradient id="ac" x1="162.87601" x2="228.2007" y1="217.32809" y2="217.32809" gradientTransform="matrix(1 0 0 -1 .706 352.748)" gradientUnits="userSpaceOnUse"><stop offset="0" style="stop-color:#6cc3ee"/><stop offset="0.3537" style="stop-color:#0076bc"/><stop offset="0.7202" style="stop-color:#0a3574"/><stop offset="1" style="stop-color:#120742"/></linearGradient><linearGradient id="ad" x1="223.55811" x2="246.44679" y1="217.56351" y2="217.56351" gradientTransform="matrix(1 0 0 -1 .706 352.748)" gradientUnits="userSpaceOnUse"><stop offset="0" style="stop-color:#6cc3ee"/><stop offset="0.3537" style="stop-color:#0076bc"/><stop offset="0.7202" style="stop-color:#0a3574"/><stop offset="1" style="stop-color:#120742"/></linearGradient><linearGradient id="ae" x1="285.3848" x2="336.5322" y1="217.5127" y2="217.5127" gradientTransform="matrix(1 0 0 -1 .706 352.748)" gradientUnits="userSpaceOnUse"><stop offset="0" style="stop-color:#6cc3ee"/><stop offset="0.3537" style="stop-color:#0076bc"/><stop offset="0.7202" style="stop-color:#0a3574"/><stop offset="1" style="stop-color:#120742"/></linearGradient><linearGradient id="af" x1="67.675301" x2="53.849201" y1="301.33011" y2="220.60339" gradientTransform="matrix(1 0 0 -1 .706 352.748)" gradientUnits="userSpaceOnUse"><stop offset="0" style="stop-color:#faed9e"/><stop offset="0.1967" style="stop-color:#9c842f"/><stop offset="0.2157" style="stop-color:#a28a33"/><stop offset="0.3232" style="stop-color:#baa545"/><stop offset="0.4181" style="stop-color:#c9b650"/><stop offset="0.4897" style="stop-color:#cebc54"/><stop offset="0.7066" style="stop-color:#faed9e"/><stop offset="0.8906" style="stop-color:#a98634"/><stop offset="1" style="stop-color:#a98634"/></linearGradient><linearGradient id="ag" x1="111.1626" x2="98.487602" y1="286.70901" y2="212.70351" gradientTransform="matrix(1 0 0 -1 .706 352.748)" gradientUnits="userSpaceOnUse"><stop offset="0" style="stop-color:#faed9e"/><stop offset="0.1967" style="stop-color:#9c842f"/><stop offset="0.2157" style="stop-color:#a28a33"/><stop offset="0.3232" style="stop-color:#baa545"/><stop offset="0.4181" style="stop-color:#c9b650"/><stop offset="0.4897" style="stop-color:#cebc54"/><stop offset="0.7066" style="stop-color:#faed9e"/><stop offset="0.8906" style="stop-color:#a98634"/><stop offset="1" style="stop-color:#a98634"/></linearGradient><linearGradient id="ah" x1="154.99409" x2="143.2789" y1="274.2695" y2="205.868" gradientTransform="matrix(1 0 0 -1 .706 352.748)" gradientUnits="userSpaceOnUse"><stop offset="0" style="stop-color:#faed9e"/><stop offset="0.1967" style="stop-color:#9c842f"/><stop offset="0.2157" style="stop-color:#a28a33"/><stop offset="0.3232" style="stop-color:#baa545"/><stop offset="0.4181" style="stop-color:#c9b650"/><stop offset="0.4897" style="stop-color:#cebc54"/><stop offset="0.7066" style="stop-color:#faed9e"/><stop offset="0.8906" style="stop-color:#a98634"/><stop offset="1" style="stop-color:#a98634"/></linearGradient><linearGradient id="ai" x1="273.82281" x2="262.49469" y1="253.6523" y2="187.5108" gradientTransform="matrix(1 0 0 -1 .706 352.748)" gradientUnits="userSpaceOnUse"><stop offset="0" style="stop-color:#faed9e"/><stop offset="0.1967" style="stop-color:#9c842f"/><stop offset="0.2157" style="stop-color:#a28a33"/><stop offset="0.3232" style="stop-color:#baa545"/><stop offset="0.4181" style="stop-color:#c9b650"/><stop offset="0.4897" style="stop-color:#cebc54"/><stop offset="0.7066" style="stop-color:#faed9e"/><stop offset="0.8906" style="stop-color:#a98634"/><stop offset="1" style="stop-color:#a98634"/></linearGradient><linearGradient id="aj" x1="205.45461" x2="194.1557" y1="264.19821" y2="198.2278" gradientTransform="matrix(1 0 0 -1 .706 352.748)" gradientUnits="userSpaceOnUse"><stop offset="0" style="stop-color:#faed9e"/><stop offset="0.1967" style="stop-color:#9c842f"/><stop offset="0.2157" style="stop-color:#a28a33"/><stop offset="0.3232" style="stop-color:#baa545"/><stop offset="0.4181" style="stop-color:#c9b650"/><stop offset="0.4897" style="stop-color:#cebc54"/><stop offset="0.7066" style="stop-color:#faed9e"/><stop offset="0.8906" style="stop-color:#a98634"/><stop offset="1" style="stop-color:#a98634"/></linearGradient><linearGradient id="ak" x1="243.3486" x2="232.2733" y1="257.4863" y2="192.82091" gradientTransform="matrix(1 0 0 -1 .706 352.748)" gradientUnits="userSpaceOnUse"><stop offset="0" style="stop-color:#faed9e"/><stop offset="0.1967" style="stop-color:#9c842f"/><stop offset="0.2157" style="stop-color:#a28a33"/><stop offset="0.3232" style="stop-color:#baa545"/><stop offset="0.4181" style="stop-color:#c9b650"/><stop offset="0.4897" style="stop-color:#cebc54"/><stop offset="0.7066" style="stop-color:#faed9e"/><stop offset="0.8906" style="stop-color:#a98634"/><stop offset="1" style="stop-color:#a98634"/></linearGradient><linearGradient id="al" x1="317.9639" x2="306.14539" y1="247.84959" y2="178.8447" gradientTransform="matrix(1 0 0 -1 .706 352.748)" gradientUnits="userSpaceOnUse"><stop offset="0" style="stop-color:#faed9e"/><stop offset="0.1967" style="stop-color:#9c842f"/><stop offset="0.2157" style="stop-color:#a28a33"/><stop offset="0.3232" style="stop-color:#baa545"/><stop offset="0.4181" style="stop-color:#c9b650"/><stop offset="0.4897" style="stop-color:#cebc54"/><stop offset="0.7066" style="stop-color:#faed9e"/><stop offset="0.8906" style="stop-color:#a98634"/><stop offset="1" style="stop-color:#a98634"/></linearGradient><linearGradient id="am" x1="345.45901" x2="372.64841" y1="218.27251" y2="218.27251" gradientTransform="matrix(1 0 0 -1 .706 352.748)" gradientUnits="userSpaceOnUse"><stop offset="0" style="stop-color:#faed9e"/><stop offset="0.1967" style="stop-color:#9c842f"/><stop offset="0.2157" style="stop-color:#a28a33"/><stop offset="0.3232" style="stop-color:#baa545"/><stop offset="0.4181" style="stop-color:#c9b650"/><stop offset="0.4897" style="stop-color:#cebc54"/><stop offset="0.7066" style="stop-color:#faed9e"/><stop offset="0.8906" style="stop-color:#a98634"/><stop offset="1" style="stop-color:#a98634"/></linearGradient><linearGradient id="an" x1="367.12991" x2="427.35211" y1="218.27541" y2="218.27541" gradientTransform="matrix(1 0 0 -1 .706 352.748)" gradientUnits="userSpaceOnUse"><stop offset="0" style="stop-color:#faed9e"/><stop offset="0.1967" style="stop-color:#9c842f"/><stop offset="0.2157" style="stop-color:#a28a33"/><stop offset="0.3232" style="stop-color:#baa545"/><stop offset="0.4181" style="stop-color:#c9b650"/><stop offset="0.4897" style="stop-color:#cebc54"/><stop offset="0.8906" style="stop-color:#a98634"/><stop offset="1" style="stop-color:#a98634"/></linearGradient><linearGradient id="ao" x1="348.44089" x2="372.64749" y1="218.2715" y2="218.2715" gradientTransform="matrix(1 0 0 -1 .706 352.748)" gradientUnits="userSpaceOnUse"><stop offset="0" style="stop-color:#6cc3ee"/><stop offset="0.3537" style="stop-color:#0076bc"/><stop offset="0.7202" style="stop-color:#0a3574"/><stop offset="1" style="stop-color:#120742"/></linearGradient><linearGradient id="ap" x1="370.11771" x2="427.35211" y1="218.2168" y2="218.2168" gradientTransform="matrix(1 0 0 -1 .706 352.748)" gradientUnits="userSpaceOnUse"><stop offset="0" style="stop-color:#6cc3ee"/><stop offset="0.3537" style="stop-color:#0076bc"/><stop offset="0.7202" style="stop-color:#0a3574"/><stop offset="1" style="stop-color:#120742"/></linearGradient><linearGradient id="ar" x1="26.1602" x2="447.76581" y1="260.5459" y2="260.5459" gradientTransform="matrix(1 0 0 -1 .706 352.748)" gradientUnits="userSpaceOnUse"><stop offset="0" style="stop-color:#fff"/><stop offset="0.0856" style="stop-color:#fcfcfd"/><stop offset="0.159" style="stop-color:#f1f4f6"/><stop offset="0.2277" style="stop-color:#dfe6ea"/><stop offset="0.2934" style="stop-color:#c7d3d9"/><stop offset="0.3428" style="stop-color:#afc0c9"/><stop offset="0.3452" style="stop-color:#b0c1ca"/><stop offset="0.4083" style="stop-color:#cdd7dd"/><stop offset="0.4753" style="stop-color:#e3e9ec"/><stop offset="0.5485" style="stop-color:#f3f5f7"/><stop offset="0.6315" style="stop-color:#fcfdfd"/><stop offset="0.7455" style="stop-color:#fff"/><stop offset="0.8203" style="stop-color:#fcfcfd"/><stop offset="0.8755" style="stop-color:#f3f4f5"/><stop offset="0.9244" style="stop-color:#e3e6e8"/><stop offset="0.9694" style="stop-color:#ccd3d7"/><stop offset="0.9909" style="stop-color:#bfc7cc"/></linearGradient><linearGradient id="as" x1="-0.70700002" x2="446.7988" y1="215.959" y2="215.959" gradientTransform="matrix(1 0 0 -1 .706 352.748)" gradientUnits="userSpaceOnUse"><stop offset="0" style="stop-color:#fff"/><stop offset="0.0856" style="stop-color:#fcfcfd"/><stop offset="0.159" style="stop-color:#f1f4f6"/><stop offset="0.2277" style="stop-color:#dfe6ea"/><stop offset="0.2934" style="stop-color:#c7d3d9"/><stop offset="0.3428" style="stop-color:#afc0c9"/><stop offset="0.3452" style="stop-color:#b0c1ca"/><stop offset="0.4083" style="stop-color:#cdd7dd"/><stop offset="0.4753" style="stop-color:#e3e9ec"/><stop offset="0.5485" style="stop-color:#f3f5f7"/><stop offset="0.6315" style="stop-color:#fcfdfd"/><stop offset="0.7455" style="stop-color:#fff"/><stop offset="0.8203" style="stop-color:#fcfcfd"/><stop offset="0.8755" style="stop-color:#f3f4f5"/><stop offset="0.9244" style="stop-color:#e3e6e8"/><stop offset="0.9694" style="stop-color:#ccd3d7"/><stop offset="0.9909" style="stop-color:#bfc7cc"/></linearGradient><linearGradient id="E" x1="155.53419" x2="183.83591" y1="285.16989" y2="285.16989" gradientTransform="matrix(1 0 0 -1 .706 352.748)" gradientUnits="userSpaceOnUse"><stop offset="0.0626" style="stop-color:#fff"/><stop offset="0.0941" style="stop-color:#eff2f4"/><stop offset="0.1555" style="stop-color:#c4d2d9"/><stop offset="0.1841" style="stop-color:#afc1cb"/><stop offset="0.3428" style="stop-color:#afc0c9"/><stop offset="0.3606" style="stop-color:#bac8d1"/><stop offset="0.4097" style="stop-color:#d3dce1"/><stop offset="0.4646" style="stop-color:#e7ecef"/><stop offset="0.5276" style="stop-color:#f5f7f8"/><stop offset="0.6058" style="stop-color:#fdfdfd"/><stop offset="0.7455" style="stop-color:#fff"/><stop offset="0.8" style="stop-color:#f9fafa"/><stop offset="0.8744" style="stop-color:#e7eaec"/><stop offset="0.9598" style="stop-color:#cbd1d6"/><stop offset="0.9909" style="stop-color:#bfc7cc"/></linearGradient><linearGradient id="F" x1="201.0649" x2="212.8822" y1="293.62299" y2="256.40979" gradientTransform="matrix(1 0 0 -1 .706 352.748)" gradientUnits="userSpaceOnUse"><stop offset="0.0091" style="stop-color:#bfc7cc"/><stop offset="0.0114" style="stop-color:#bfc7cc"/><stop offset="0.1732" style="stop-color:#edeff1"/><stop offset="0.2545" style="stop-color:#fff"/><stop offset="0.3403" style="stop-color:#fbfcfc"/><stop offset="0.4328" style="stop-color:#eef1f3"/><stop offset="0.5283" style="stop-color:#d8e0e5"/><stop offset="0.6254" style="stop-color:#bac9d1"/><stop offset="0.6572" style="stop-color:#afc0c9"/><stop offset="0.8159" style="stop-color:#afc1cb"/><stop offset="0.8445" style="stop-color:#c4d2d9"/><stop offset="0.9059" style="stop-color:#eff2f4"/><stop offset="0.9374" style="stop-color:#fff"/></linearGradient><linearGradient id="G" x1="236.7749" x2="268.36621" y1="267.71091" y2="267.71091" gradientTransform="matrix(1 0 0 -1 .706 352.748)" gradientUnits="userSpaceOnUse"><stop offset="0.0091" style="stop-color:#bfc7cc"/><stop offset="0.108" style="stop-color:#dfe3e6"/><stop offset="0.198" style="stop-color:#f7f8f8"/><stop offset="0.2545" style="stop-color:#fff"/><stop offset="0.3432" style="stop-color:#fbfcfc"/><stop offset="0.4339" style="stop-color:#eff2f4"/><stop offset="0.5254" style="stop-color:#dae2e6"/><stop offset="0.6171" style="stop-color:#becbd3"/><stop offset="0.6572" style="stop-color:#afc0c9"/><stop offset="0.719" style="stop-color:#c8d4da"/><stop offset="0.8076" style="stop-color:#e6ebee"/><stop offset="0.8835" style="stop-color:#f8fafb"/><stop offset="0.9374" style="stop-color:#fff"/></linearGradient><linearGradient id="H" x1="306.5571" x2="326.5029" y1="271.7861" y2="271.7861" gradientTransform="matrix(1 0 0 -1 .706 352.748)" gradientUnits="userSpaceOnUse"><stop offset="0.0626" style="stop-color:#fff"/><stop offset="0.0941" style="stop-color:#eff2f4"/><stop offset="0.1555" style="stop-color:#c4d2d9"/><stop offset="0.1841" style="stop-color:#afc1cb"/><stop offset="0.3428" style="stop-color:#afc0c9"/><stop offset="0.7455" style="stop-color:#fff"/><stop offset="0.8053" style="stop-color:#e4e8ea"/><stop offset="0.8689" style="stop-color:#cfd5d9"/><stop offset="0.9314" style="stop-color:#c3cacf"/><stop offset="0.9909" style="stop-color:#bfc7cc"/></linearGradient><linearGradient id="I" x1="279.01511" x2="306.06009" y1="268.1113" y2="268.1113" gradientTransform="matrix(1 0 0 -1 .706 352.748)" gradientUnits="userSpaceOnUse"><stop offset="0.0091" style="stop-color:#bfc7cc"/><stop offset="0.0686" style="stop-color:#c3cacf"/><stop offset="0.1311" style="stop-color:#cfd5d9"/><stop offset="0.1947" style="stop-color:#e4e8ea"/><stop offset="0.2545" style="stop-color:#fff"/><stop offset="0.6572" style="stop-color:#afc0c9"/><stop offset="0.8159" style="stop-color:#afc1cb"/><stop offset="0.8445" style="stop-color:#c4d2d9"/><stop offset="0.9059" style="stop-color:#eff2f4"/><stop offset="0.9374" style="stop-color:#fff"/></linearGradient><radialGradient id="Q" cx="214.8159" cy="207.1064" r="132.3372" gradientTransform="matrix(1 0 0 -1 .706 352.748)" gradientUnits="userSpaceOnUse"><stop offset="0" style="stop-color:#a7a9ac"/><stop offset="0.1368" style="stop-color:#b6b8ba"/><stop offset="0.5048" style="stop-color:#dadbdd"/><stop offset="0.8057" style="stop-color:#eff1f2"/><stop offset="1" style="stop-color:#f7f9fa"/></radialGradient><radialGradient id="R" cx="213.6924" cy="180.41409" r="198.0914" gradientTransform="matrix(1 0 0 -1 .706 352.748)" gradientUnits="userSpaceOnUse"><stop offset="0" style="stop-color:#9c842f"/><stop offset="0.4065" style="stop-color:#bfaa49"/><stop offset="0.6469" style="stop-color:#cebc54"/><stop offset="0.7188" style="stop-color:#d3c05b"/><stop offset="0.8227" style="stop-color:#decd6e"/><stop offset="0.9454" style="stop-color:#f0e28e"/><stop offset="1" style="stop-color:#faed9e"/></radialGradient><radialGradient id="S" cx="211.35451" cy="179.82809" r="198.1842" gradientTransform="matrix(1 0 0 -1 .706 352.748)" gradientUnits="userSpaceOnUse"><stop offset="0.0262" style="stop-color:#520000"/><stop offset="0.3319" style="stop-color:#a9171c"/><stop offset="0.5534" style="stop-color:#d91b22"/><stop offset="0.6681" style="stop-color:#ed1c24"/><stop offset="1" style="stop-color:#f05123"/></radialGradient><radialGradient id="T" cx="220.28709" cy="216.30659" r="168.5318" gradientTransform="matrix(1 0 0 -1 .706 352.748)" gradientUnits="userSpaceOnUse"><stop offset="0" style="stop-color:#f7f9fa"/><stop offset="0.2471" style="stop-color:#f3f4f5"/><stop offset="0.5207" style="stop-color:#e5e7e8"/><stop offset="0.8059" style="stop-color:#cfd1d3"/><stop offset="1" style="stop-color:#bcbec0"/></radialGradient><radialGradient id="U" cx="221.9644" cy="221.59669" r="166.836" gradientTransform="matrix(1 0 0 -1 .706 352.748)" gradientUnits="userSpaceOnUse"><stop offset="0" style="stop-color:#9c842f"/><stop offset="0.4065" style="stop-color:#bfaa49"/><stop offset="0.6469" style="stop-color:#cebc54"/><stop offset="0.7188" style="stop-color:#d3c05b"/><stop offset="0.8227" style="stop-color:#decd6e"/><stop offset="0.9454" style="stop-color:#f0e28e"/><stop offset="1" style="stop-color:#faed9e"/></radialGradient><radialGradient id="aq" cx="204.0425" cy="269.3887" r="311.53091" gradientTransform="matrix(.432 .7204 1.1817 -.6754 -315.297 118.07)" gradientUnits="userSpaceOnUse"><stop offset="0" style="stop-color:#f7f9fa"/><stop offset="0.154" style="stop-color:#f7f8f2;stop-opacity:.8236"/><stop offset="0.3919" style="stop-color:#f8f5dc;stop-opacity:.5512"/><stop offset="0.6823" style="stop-color:#f9f1b9;stop-opacity:.2187"/><stop offset="0.8734" style="stop-color:#faed9e;stop-opacity:0"/></radialGradient><radialGradient id="b" cx="345.2085" cy="90.922401" r="101.5572" gradientTransform="matrix(1 0 0 -1 .706 352.748)" gradientUnits="userSpaceOnUse"><stop offset="0.3263" style="stop-color:#f7f9fa"/><stop offset="0.4928" style="stop-color:#f3f4f5;stop-opacity:.7529"/><stop offset="0.6771" style="stop-color:#e5e7e8;stop-opacity:.4793"/><stop offset="0.8692" style="stop-color:#cfd1d3;stop-opacity:.1941"/><stop offset="1" style="stop-color:#bcbec0;stop-opacity:0"/></radialGradient><radialGradient id="d" cx="299.42529" cy="75.6045" r="221.1971" gradientTransform="matrix(1 0 0 -1 .706 352.748)" gradientUnits="userSpaceOnUse"><stop offset="0" style="stop-color:#f3757c"/><stop offset="0.3799" style="stop-color:#ed1c24"/><stop offset="0.5021" style="stop-color:#d91b22"/><stop offset="0.738" style="stop-color:#a9171c"/><stop offset="1" style="stop-color:#520000"/></radialGradient><radialGradient id="h" cx="151.793" cy="350.86911" r="213.9666" gradientTransform="matrix(1 0 0 -1 .706 352.748)" gradientUnits="userSpaceOnUse"><stop offset="0" style="stop-color:#f3757c"/><stop offset="0.3799" style="stop-color:#ed1c24"/><stop offset="0.5021" style="stop-color:#d91b22"/><stop offset="0.738" style="stop-color:#a9171c"/><stop offset="1" style="stop-color:#520000"/></radialGradient><radialGradient id="j" cx="111.9429" cy="337.15921" r="82.938499" gradientTransform="matrix(1 0 0 -1 .706 352.748)" gradientUnits="userSpaceOnUse"><stop offset="0.3263" style="stop-color:#f7f9fa"/><stop offset="0.4928" style="stop-color:#f3f4f5;stop-opacity:.7529"/><stop offset="0.6771" style="stop-color:#e5e7e8;stop-opacity:.4793"/><stop offset="0.8692" style="stop-color:#cfd1d3;stop-opacity:.1941"/><stop offset="1" style="stop-color:#bcbec0;stop-opacity:0"/></radialGradient><radialGradient id="m" cx="168.75681" cy="194.84081" r="164.7428" gradientTransform="matrix(.855 0 0 -.8348 62.047 258.668)" gradientUnits="userSpaceOnUse"><stop offset="0.584" style="stop-color:#f7f9fa"/><stop offset="0.6868" style="stop-color:#f3f4f5"/><stop offset="0.8006" style="stop-color:#e5e7e8"/><stop offset="0.9192" style="stop-color:#cfd1d3"/><stop offset="1" style="stop-color:#bcbec0"/></radialGradient><radialGradient id="n" cx="168.75681" cy="194.84081" r="164.7428" gradientTransform="matrix(.855 0 0 -.8348 62.047 258.668)" gradientUnits="userSpaceOnUse"><stop offset="0.584" style="stop-color:#f7f9fa"/><stop offset="0.6868" style="stop-color:#f3f4f5"/><stop offset="0.8006" style="stop-color:#e5e7e8"/><stop offset="0.9192" style="stop-color:#cfd1d3"/><stop offset="1" style="stop-color:#bcbec0"/></radialGradient><radialGradient id="o" cx="168.75681" cy="194.84081" r="164.7428" gradientTransform="matrix(.855 0 0 -.8348 62.047 258.668)" gradientUnits="userSpaceOnUse"><stop offset="0.3263" style="stop-color:#f7f9fa"/><stop offset="0.4928" style="stop-color:#f3f4f5;stop-opacity:.7529"/><stop offset="0.6771" style="stop-color:#e5e7e8;stop-opacity:.4793"/><stop offset="0.8692" style="stop-color:#cfd1d3;stop-opacity:.1941"/><stop offset="1" style="stop-color:#bcbec0;stop-opacity:0"/></radialGradient><radialGradient id="p" cx="168.75681" cy="194.84081" r="164.7428" gradientTransform="matrix(.855 0 0 -.8348 62.047 258.668)" gradientUnits="userSpaceOnUse"><stop offset="0.3263" style="stop-color:#f7f9fa"/><stop offset="0.4928" style="stop-color:#f3f4f5;stop-opacity:.7529"/><stop offset="0.6771" style="stop-color:#e5e7e8;stop-opacity:.4793"/><stop offset="0.8692" style="stop-color:#cfd1d3;stop-opacity:.1941"/><stop offset="1" style="stop-color:#bcbec0;stop-opacity:0"/></radialGradient><radialGradient id="q" cx="203.74609" cy="317.78519" r="106.7888" gradientTransform="matrix(1 0 0 -1 .706 352.748)" gradientUnits="userSpaceOnUse"><stop offset="0.4923" style="stop-color:#f7f9fa"/><stop offset="0.6183" style="stop-color:#eef0f1"/><stop offset="0.8228" style="stop-color:#d6d8da"/><stop offset="1" style="stop-color:#bcbec0"/></radialGradient><radialGradient id="r" cx="139.32671" cy="70.778801" r="122.8987" gradientTransform="matrix(.855 0 0 -.8348 62.047 258.668)" gradientUnits="userSpaceOnUse"><stop offset="0.4923" style="stop-color:#f7f9fa"/><stop offset="0.6178" style="stop-color:#f3f4f5"/><stop offset="0.7567" style="stop-color:#e5e7e8"/><stop offset="0.9014" style="stop-color:#cfd1d3"/><stop offset="1" style="stop-color:#bcbec0"/></radialGradient><radialGradient id="y" cx="103.0254" cy="291.90619" r="259.06091" gradientTransform="matrix(1 0 0 -1 4 355)" gradientUnits="userSpaceOnUse"><stop offset="0" style="stop-color:#f05123"/><stop offset="0.3799" style="stop-color:#ed1c24"/><stop offset="0.5021" style="stop-color:#d91b22"/><stop offset="0.738" style="stop-color:#a9171c"/><stop offset="1" style="stop-color:#520000"/></radialGradient><radialGradient id="z" cx="103.0166" cy="291.87701" r="259.01181" gradientTransform="matrix(1 0 0 -1 4 355)" gradientUnits="userSpaceOnUse"><stop offset="0" style="stop-color:#f05123"/><stop offset="0.3799" style="stop-color:#ed1c24"/><stop offset="0.5021" style="stop-color:#d91b22"/><stop offset="0.738" style="stop-color:#a9171c"/><stop offset="1" style="stop-color:#520000"/></radialGradient><radialGradient id="A" cx="103.0293" cy="291.89651" r="259.0419" gradientTransform="matrix(1 0 0 -1 4 355)" gradientUnits="userSpaceOnUse"><stop offset="0" style="stop-color:#f05123"/><stop offset="0.3799" style="stop-color:#ed1c24"/><stop offset="0.5021" style="stop-color:#d91b22"/><stop offset="0.738" style="stop-color:#a9171c"/><stop offset="1" style="stop-color:#520000"/></radialGradient><radialGradient id="B" cx="103.04" cy="291.89651" r="259.03159" gradientTransform="matrix(1 0 0 -1 4 355)" gradientUnits="userSpaceOnUse"><stop offset="0" style="stop-color:#f05123"/><stop offset="0.3799" style="stop-color:#ed1c24"/><stop offset="0.5021" style="stop-color:#d91b22"/><stop offset="0.738" style="stop-color:#a9171c"/><stop offset="1" style="stop-color:#520000"/></radialGradient><radialGradient id="C" cx="103.0356" cy="291.93549" r="259.0697" gradientTransform="matrix(1 0 0 -1 4 355)" gradientUnits="userSpaceOnUse"><stop offset="0" style="stop-color:#f05123"/><stop offset="0.3799" style="stop-color:#ed1c24"/><stop offset="0.5021" style="stop-color:#d91b22"/><stop offset="0.738" style="stop-color:#a9171c"/><stop offset="1" style="stop-color:#520000"/></radialGradient><radialGradient id="D" cx="103.0151" cy="291.9053" r="259.06561" gradientTransform="matrix(1 0 0 -1 4 355)" gradientUnits="userSpaceOnUse"><stop offset="0" style="stop-color:#f05123"/><stop offset="0.3799" style="stop-color:#ed1c24"/><stop offset="0.5021" style="stop-color:#d91b22"/><stop offset="0.738" style="stop-color:#a9171c"/><stop offset="1" style="stop-color:#520000"/></radialGradient><radialGradient id="K" cx="104.1387" cy="292.08691" r="255.4928" gradientTransform="matrix(1 0 0 -1 4 355)" gradientUnits="userSpaceOnUse"><stop offset="0" style="stop-color:#f05123"/><stop offset="0.3799" style="stop-color:#ed1c24"/><stop offset="0.5021" style="stop-color:#d91b22"/><stop offset="0.738" style="stop-color:#a9171c"/><stop offset="1" style="stop-color:#520000"/></radialGradient><radialGradient id="L" cx="104.1362" cy="292.08591" r="255.50771" gradientTransform="matrix(1 0 0 -1 4 355)" gradientUnits="userSpaceOnUse"><stop offset="0" style="stop-color:#f05123"/><stop offset="0.3799" style="stop-color:#ed1c24"/><stop offset="0.5021" style="stop-color:#d91b22"/><stop offset="0.738" style="stop-color:#a9171c"/><stop offset="1" style="stop-color:#520000"/></radialGradient><radialGradient id="M" cx="104.1318" cy="292.08691" r="255.5106" gradientTransform="matrix(1 0 0 -1 4 355)" gradientUnits="userSpaceOnUse"><stop offset="0" style="stop-color:#f05123"/><stop offset="0.3799" style="stop-color:#ed1c24"/><stop offset="0.5021" style="stop-color:#d91b22"/><stop offset="0.738" style="stop-color:#a9171c"/><stop offset="1" style="stop-color:#520000"/></radialGradient><radialGradient id="N" cx="104.1631" cy="292.08591" r="255.4568" gradientTransform="matrix(1 0 0 -1 4 355)" gradientUnits="userSpaceOnUse"><stop offset="0" style="stop-color:#f05123"/><stop offset="0.3799" style="stop-color:#ed1c24"/><stop offset="0.5021" style="stop-color:#d91b22"/><stop offset="0.738" style="stop-color:#a9171c"/><stop offset="1" style="stop-color:#520000"/></radialGradient><radialGradient id="O" cx="104.1245" cy="292.08011" r="255.5164" gradientTransform="matrix(1 0 0 -1 4 355)" gradientUnits="userSpaceOnUse"><stop offset="0" style="stop-color:#f05123"/><stop offset="0.3799" style="stop-color:#ed1c24"/><stop offset="0.5021" style="stop-color:#d91b22"/><stop offset="0.738" style="stop-color:#a9171c"/><stop offset="1" style="stop-color:#520000"/></radialGradient><radialGradient id="P" cx="104.1382" cy="292.0889" r="255.4964" gradientTransform="matrix(1 0 0 -1 4 355)" gradientUnits="userSpaceOnUse"><stop offset="0" style="stop-color:#f05123"/><stop offset="0.3799" style="stop-color:#ed1c24"/><stop offset="0.5021" style="stop-color:#d91b22"/><stop offset="0.738" style="stop-color:#a9171c"/><stop offset="1" style="stop-color:#520000"/></radialGradient><radialGradient id="W" cx="334.18851" cy="262.7236" r="139.5128" gradientTransform="matrix(1 0 0 -1 .706 352.748)" gradientUnits="userSpaceOnUse"><stop offset="0" style="stop-color:#faed9e"/><stop offset="0.3793" style="stop-color:#cebc54"/><stop offset="0.437" style="stop-color:#c9b650"/><stop offset="0.5135" style="stop-color:#baa545"/><stop offset="0.6002" style="stop-color:#a28a33"/><stop offset="0.6155" style="stop-color:#9c842f"/><stop offset="0.7471" style="stop-color:#887328"/><stop offset="1" style="stop-color:#574918"/></radialGradient><radialGradient id="e" cx="307.1152" cy="119.7627" r="31.883699" gradientTransform="matrix(1 0 0 -.9881 .706 345.937)" gradientUnits="userSpaceOnUse"><stop offset="0.1429" style="stop-color:#f7f9fa"/><stop offset="1" style="stop-color:#bcbec0;stop-opacity:0"/></radialGradient><radialGradient id="f" cx="307.1152" cy="119.7627" r="31.883699" gradientTransform="matrix(1 0 0 -.9881 .706 345.937)" gradientUnits="userSpaceOnUse"><stop offset="0.1429" style="stop-color:#f7f9fa"/><stop offset="1" style="stop-color:#bcbec0;stop-opacity:0"/></radialGradient><radialGradient id="k" cx="140.29691" cy="300.35449" r="31.882401" gradientTransform="matrix(1 0 0 -.9881 .706 345.937)" gradientUnits="userSpaceOnUse"><stop offset="0.1429" style="stop-color:#f7f9fa"/><stop offset="1" style="stop-color:#bcbec0;stop-opacity:0"/></radialGradient><radialGradient id="l" cx="140.29691" cy="300.35449" r="31.882401" gradientTransform="matrix(1 0 0 -.9881 .706 345.937)" gradientUnits="userSpaceOnUse"><stop offset="0.1429" style="stop-color:#f7f9fa"/><stop offset="1" style="stop-color:#bcbec0;stop-opacity:0"/></radialGradient></defs><path fill="url(#a)" d="M356.979 183.419c-18.164 46.972-64.223 80.349-118.207 80.349-50.814 0-94.605-29.574-114.731-72.221 19.173 35.604 56.789 59.818 100.118 59.818 47.989 0 89.016-29.707 105.675-71.71 9.677 1.155 18.757 2.417 27.145 3.764z"/><path fill="url(#b)" d="M354.246 182.994c-6.275 16.062-16.015 30.758-28.803 43.146-23.277 22.547-54.056 34.963-86.67 34.963-23.74 0-46.521-6.812-65.94-18.897 17.848 10.313 38.364 16.079 59.692 16.079 31.473 0 61.172-12.121 83.633-34.145 12.472-12.238 21.927-26.765 27.989-42.638 3.472.484 6.826.986 10.099 1.492z"/><path fill="url(#c)" d="M237.766 268.675c29.956 0 57.562-8.538 79.426-25.487-23.637 20.438-54.774 32.871-88.846 32.871-62.127 0-112.968-41.004-127.918-96.943a871.315 871.315 0 0 1 14.771-1.524c15.955 52.25 64.557 91.083 122.567 91.083z"/><path fill="url(#d)" d="M317.588 242.882c-24.356 21.071-56.375 33.874-91.487 33.874-62.761 0-115.691-40.883-132.473-96.851a811.092 811.092 0 0 1 15.462-1.715c16.544 53.606 66.999 92.623 126.724 92.623 30.869-.001 59.25-10.458 81.774-27.931z"/><path fill="url(#e)" d="M341.628 200.646s-.577 1.271-1.785 3.399c-.589 1.079-1.362 2.334-2.259 3.791-.952 1.407-1.951 3.06-3.224 4.731-.62.846-1.259 1.729-1.926 2.65-.715.881-1.445 1.801-2.2 2.732-1.477 1.9-3.199 3.775-4.96 5.734-1.832 1.883-3.701 3.879-5.738 5.742-2.089 1.816-4.107 3.786-6.351 5.493l-3.337 2.586c-1.114.849-2.298 1.593-3.436 2.388a149.755 149.755 0 0 1-3.42 2.287c-1.186.676-2.354 1.334-3.503 1.993-1.157.636-2.268 1.31-3.397 1.888-1.152.524-2.286 1.043-3.392 1.545-1.098.5-2.168.986-3.207 1.453-1.035.463-2.109.752-3.097 1.112-1.99.691-3.818 1.304-5.446 1.802-1.674.371-3.12.695-4.32.965-2.391.478-3.76.754-3.76.754s1.287-.537 3.546-1.473c1.122-.439 2.485-.978 4.055-1.597 1.51-.724 3.224-1.539 5.096-2.435 1.884-.815 3.815-1.938 5.877-3.078 1.027-.566 2.086-1.153 3.164-1.75 1.042-.668 2.108-1.336 3.191-2.023 1.082-.688 2.184-1.376 3.301-2.081a149.71 149.71 0 0 1 3.251-2.329c1.086-.793 2.228-1.523 3.293-2.375l3.199-2.55c2.208-1.624 4.198-3.512 6.264-5.241 1.991-1.812 3.953-3.606 5.813-5.382 1.786-1.846 3.639-3.522 5.233-5.272a205.578 205.578 0 0 0 4.542-4.887c1.406-1.521 2.606-2.979 3.745-4.238 1.058-1.303 2.048-2.408 2.792-3.356a81.869 81.869 0 0 0 2.396-2.978z"/><path fill="url(#f)" d="M341.628 200.646s-.577 1.271-1.785 3.399c-.589 1.079-1.362 2.334-2.259 3.791-.952 1.407-1.951 3.06-3.224 4.731-.62.846-1.259 1.729-1.926 2.65-.715.881-1.445 1.801-2.2 2.732-1.477 1.9-3.199 3.775-4.96 5.734-1.832 1.883-3.701 3.879-5.738 5.742-2.089 1.816-4.107 3.786-6.351 5.493l-3.337 2.586c-1.114.849-2.298 1.593-3.436 2.388a149.755 149.755 0 0 1-3.42 2.287c-1.186.676-2.354 1.334-3.503 1.993-1.157.636-2.268 1.31-3.397 1.888-1.152.524-2.286 1.043-3.392 1.545-1.098.5-2.168.986-3.207 1.453-1.035.463-2.109.752-3.097 1.112-1.99.691-3.818 1.304-5.446 1.802-1.674.371-3.12.695-4.32.965-2.391.478-3.76.754-3.76.754s1.287-.537 3.546-1.473c1.122-.439 2.485-.978 4.055-1.597 1.51-.724 3.224-1.539 5.096-2.435 1.884-.815 3.815-1.938 5.877-3.078 1.027-.566 2.086-1.153 3.164-1.75 1.042-.668 2.108-1.336 3.191-2.023 1.082-.688 2.184-1.376 3.301-2.081a149.71 149.71 0 0 1 3.251-2.329c1.086-.793 2.228-1.523 3.293-2.375l3.199-2.55c2.208-1.624 4.198-3.512 6.264-5.241 1.991-1.812 3.953-3.606 5.813-5.382 1.786-1.846 3.639-3.522 5.233-5.272a205.578 205.578 0 0 0 4.542-4.887c1.406-1.521 2.606-2.979 3.745-4.238 1.058-1.303 2.048-2.408 2.792-3.356a81.869 81.869 0 0 0 2.396-2.978z"/><path fill="url(#g)" d="M347.299 94.545c-4.865.502-9.857.972-14.968 1.41C315.396 45.34 267.616 8.077 210.809 8.077c-29.96 0-57.479 8.463-79.344 25.421C155.104 13.053 186.155.7 220.227.7c60.978 0 111.091 39.489 127.072 93.845z"/><path fill="url(#h)" d="M353.974 93.834a844.182 844.182 0 0 1-15.533 1.576C320.916 43.44 271.304 5.944 212.759 5.944c-30.87 0-59.25 10.454-81.776 27.927C155.341 12.808 187.359 0 222.467 0c61.621 0 113.746 39.423 131.507 93.834Z"/><path fill="url(#i)" d="M119.76 93.27a728.5 728.5 0 0 1-26.401-3.594c19.104-45.032 64.127-76.683 116.693-76.683 50.813 0 94.601 29.566 114.731 72.212-.9-1.674-1.855-3.318-2.836-4.937-19.778-33.357-56.152-55.731-97.784-55.731-46.83 0-87.027 28.314-104.403 68.733z"/><path fill="url(#j)" d="M96.103 90.09c6.292-14.625 15.469-28.041 27.282-39.479 23.276-22.547 54.053-34.957 86.666-34.957 23.741 0 46.521 6.809 65.94 18.894-17.847-10.312-38.369-16.083-59.691-16.083-31.472 0-61.176 12.129-83.635 34.143-11.494 11.272-20.408 24.503-26.482 38.934a707.76 707.76 0 0 1-10.08-1.452z"/><path fill="url(#k)" d="M107.196 76.106s.574-1.276 1.78-3.405c.593-1.07 1.369-2.33 2.266-3.783.951-1.41 1.953-3.065 3.223-4.735.619-.849 1.259-1.729 1.927-2.65.711-.881 1.443-1.797 2.197-2.732 1.479-1.904 3.202-3.776 4.965-5.729 1.832-1.888 3.695-3.879 5.737-5.747 2.087-1.817 4.105-3.788 6.349-5.494l3.335-2.583c1.112-.853 2.302-1.595 3.436-2.393a151.13 151.13 0 0 1 3.426-2.287c1.181-.672 2.352-1.331 3.501-1.987 1.157-.639 2.267-1.315 3.393-1.895 1.159-.526 2.292-1.039 3.393-1.541 1.102-.501 2.174-.984 3.209-1.446 1.034-.47 2.106-.757 3.093-1.122 1.995-.687 3.819-1.307 5.453-1.8 1.664-.372 3.122-.691 4.318-.96 2.392-.481 3.758-.75 3.758-.75s-1.291.529-3.544 1.469c-1.126.438-2.49.975-4.058 1.587-1.517.731-3.224 1.545-5.089 2.437-1.891.81-3.826 1.939-5.882 3.085-1.029.564-2.085 1.149-3.161 1.741-1.046.667-2.112 1.338-3.196 2.027-1.083.687-2.182 1.377-3.296 2.081a156.725 156.725 0 0 1-3.248 2.33c-1.092.793-2.231 1.52-3.298 2.377l-3.201 2.547c-2.207 1.616-4.198 3.507-6.259 5.241a301.054 301.054 0 0 0-5.818 5.378c-1.785 1.853-3.635 3.522-5.227 5.272-1.633 1.71-3.167 3.337-4.543 4.882-1.409 1.52-2.611 2.985-3.741 4.242-1.062 1.303-2.055 2.405-2.799 3.357-1.558 1.872-2.399 2.986-2.399 2.986z"/><path fill="url(#l)" d="M107.196 76.106s.574-1.276 1.78-3.405c.593-1.07 1.369-2.33 2.266-3.783.951-1.41 1.953-3.065 3.223-4.735.619-.849 1.259-1.729 1.927-2.65.711-.881 1.443-1.797 2.197-2.732 1.479-1.904 3.202-3.776 4.965-5.729 1.832-1.888 3.695-3.879 5.737-5.747 2.087-1.817 4.105-3.788 6.349-5.494l3.335-2.583c1.112-.853 2.302-1.595 3.436-2.393a151.13 151.13 0 0 1 3.426-2.287c1.181-.672 2.352-1.331 3.501-1.987 1.157-.639 2.267-1.315 3.393-1.895 1.159-.526 2.292-1.039 3.393-1.541 1.102-.501 2.174-.984 3.209-1.446 1.034-.47 2.106-.757 3.093-1.122 1.995-.687 3.819-1.307 5.453-1.8 1.664-.372 3.122-.691 4.318-.96 2.392-.481 3.758-.75 3.758-.75s-1.291.529-3.544 1.469c-1.126.438-2.49.975-4.058 1.587-1.517.731-3.224 1.545-5.089 2.437-1.891.81-3.826 1.939-5.882 3.085-1.029.564-2.085 1.149-3.161 1.741-1.046.667-2.112 1.338-3.196 2.027-1.083.687-2.182 1.377-3.296 2.081a156.725 156.725 0 0 1-3.248 2.33c-1.092.793-2.231 1.52-3.298 2.377l-3.201 2.547c-2.207 1.616-4.198 3.507-6.259 5.241a301.054 301.054 0 0 0-5.818 5.378c-1.785 1.853-3.635 3.522-5.227 5.272-1.633 1.71-3.167 3.337-4.543 4.882-1.409 1.52-2.611 2.985-3.741 4.242-1.062 1.303-2.055 2.405-2.799 3.357-1.558 1.872-2.399 2.986-2.399 2.986z"/><path fill="url(#m)" d="M110.581 137.977c0-62.653 50.857-113.439 113.582-113.439 62.729 0 113.586 50.786 113.586 113.439 0 62.643-50.856 113.436-113.586 113.436-62.725-.001-113.582-50.794-113.582-113.436z"/><path fill="url(#n)" d="M110.581 137.977c0-62.653 50.857-113.439 113.582-113.439 62.729 0 113.586 50.786 113.586 113.439 0 62.643-50.856 113.436-113.586 113.436-62.725-.001-113.582-50.794-113.582-113.436z"/><path fill="url(#o)" d="M110.581 137.977c0-62.653 50.857-113.439 113.582-113.439 62.729 0 113.586 50.786 113.586 113.439 0 62.643-50.856 113.436-113.586 113.436-62.725-.001-113.582-50.794-113.582-113.436z"/><path fill="url(#p)" d="M110.581 137.977c0-62.653 50.857-113.439 113.582-113.439 62.729 0 113.586 50.786 113.586 113.439 0 62.643-50.856 113.436-113.586 113.436-62.725-.001-113.582-50.794-113.582-113.436z"/><path fill="url(#q)" d="M318.91 75.422c-71.528 35.853-152.922-16.745-165.998-25.766 19.492-15.703 44.266-25.119 71.251-25.119 39.578 0 74.415 20.226 94.747 50.885z"/><path fill="url(#r)" d="M192.87 189.352c40.017 0 75.907 14.953 100.409 38.609-19.146 14.691-43.101 23.451-69.116 23.451-38.769 0-72.983-19.415-93.475-49.028 18.579-8.305 39.728-13.032 62.182-13.032z"/><path fill="url(#s)" d="m197.795 187.626 2.653-9.04.315-1.095-.954.585a665.332 665.332 0 0 0-8.679 5.402c-2.895-2.33-5.855-4.568-8.821-6.806l-1.493-1.126.648 1.77a897.551 897.551 0 0 0 3.601 9.684c-2.55 1.785-5.12 3.527-7.644 5.349l-1.054.76 1.273.085c3.409.226 6.819.428 10.239.538a468.513 468.513 0 0 0 4.001 9.968l.462 1.11.419-1.148 3.161-8.63 10.359.69 2.414.159-1.927-1.46zm-2.332 6.702-3.147 9.179-4.388-9.843-10.246-.938 8.113-5.492-3.812-10.109 9.134 6.604 8.912-5.277-2.928 9.404 9.223 7.138z"/><path fill="url(#t)" d="m157.114 186.627-1.257-9.487-.115-.877-.444.746a205.04 205.04 0 0 1-4.022 6.494c-2.604-1.604-5.152-3.304-7.708-4.974l-1.637-1.073.978 1.737a142.36 142.36 0 0 0 2.654 4.494c.832 1.406 1.716 2.775 2.595 4.143-1.086 1.999-2.18 3.988-3.213 6.021l-.334.656.711-.021a192.17 192.17 0 0 0 7.492-.443 393.711 393.711 0 0 0 5.241 8.902l1.043 1.732-.102-2.049c-.137-2.892-.232-5.791-.404-8.674l6.687-.462 2.157-.149-1.805-1.17zm.748 6.682.62 9.349-5.634-8.685-7.535.088 3.503-6.252-5.5-8.871 8.029 4.881 4.21-6.65 1.016 9.799 8.652 5.803z"/><path fill="url(#u)" d="m136.077 197.639 2.648-1.449.968-.525-.868-.648c-1.884-1.397-3.753-2.818-5.657-4.193-1.102-2.508-2.284-4.979-3.371-7.492l-.426-.99-.048 1.065a111.964 111.964 0 0 1-.324 4.94c-1.406-1.051-2.766-2.156-4.156-3.233l-2.101-1.623 1.419 2.302c1.569 2.536 3.331 4.952 5.098 7.357.104 2.015.309 4.017.478 6.031l.04.435.375-.144c1.037-.402 2.083-.773 3.116-1.199a204.646 204.646 0 0 0 4.807 7.682l2.624 3.984-1.653-4.512a291.372 291.372 0 0 0-2.969-7.788zm-2.783.547-3.236.967-.267-6.195-5.231-7.453 4.657 3.326.354-5.411 3.149 7.761 5.675 4.389-3.234 1.729 3.368 8.339z"/><path fill="url(#v)" d="m250.968 187.59-1.256.411a470.244 470.244 0 0 1-10.553 3.29 306.808 306.808 0 0 1-6.855-7.879l-.632-.742-.071.998a312.29 312.29 0 0 0-.581 9.607c-1.651.591-3.29 1.227-4.933 1.834-1.762.671-3.535 1.303-5.291 2.008l-1.411.562 1.453.348c3.491.838 6.987 1.664 10.513 2.386-.118 3.219-.229 6.44-.28 9.657l-.021 1.104.791-.81c2.393-2.452 4.719-4.967 7.077-7.453l9.944 2.322 1.908.443-1.161-1.576-5.648-7.678 6.173-7.779zm-7.796 8.818 5.854 8.117-10.328-2.352-7.184 7.891-.091-9.707-10.462-2.795 10.64-3.859.399-10.02 7.092 7.854 10.731-3.152z"/><path fill="url(#w)" d="M280.159 216.381c-.301-2.23-.647-4.455-.991-6.684 2.653-2.116 5.233-4.312 7.839-6.483l2.156-1.802-2.769.549c-2.915.573-5.821 1.246-8.728 1.875l-1.951-6.613-.343-1.188-.51 1.102c-1.367 2.961-2.721 5.92-4.174 8.844-1.576.401-3.167.734-4.76 1.094-1.619.38-3.257.677-4.889 1.007l-1.066.222.983.524c2.018 1.087 4.024 2.181 6.07 3.204-1.129 2.613-2.144 5.271-3.227 7.902l-.754 1.823 1.541-1.198c2.832-2.218 5.651-4.438 8.393-6.775 2.199 1.033 4.399 2.07 6.619 3.055l.66.289zm-7.192-2.681-8.693 6.434 3.511-8.377-6.651-3.286 9.708-2.306 4.436-8.827 1.951 7.23 9.313-1.912-8.025 6.794 1.236 7.002z"/><path fill="url(#x)" d="M302.919 214.201c-1.509.432-3.001.904-4.498 1.363.438-1.467.877-2.932 1.3-4.4l.698-2.449-1.591 1.944c-2.022 2.471-4 4.978-6.118 7.377-1.07.367-2.168.655-3.254.987-1.102.347-2.231.611-3.345.92l-.613.171.458.478 2.058 2.168c-1.86 1.979-3.583 4.081-5.337 6.161l-2.476 2.942 3.18-2.148c1.255-.854 2.464-1.773 3.697-2.667a100.79 100.79 0 0 0 3.586-2.748l2.705 2.162.299.24.166-.388c.822-1.912 1.664-3.827 2.438-5.754 2.448-1.658 4.889-3.326 7.274-5.067l3.317-2.414zm-7.109 5.975-2.263 6.032-2.883-1.995-7.584 5.059 5.672-6.522-2.52-2.433 6.604-2.09 6.382-7.225-1.773 5.542 5.68-1.64z"/><path fill="url(#y)" d="m127.854 187.756 4.657 3.326.354-5.411 3.149 7.761 5.675 4.388-3.234 1.729 3.367 8.338-5.234-7.449-3.236.966-.267-6.195z" transform="translate(-3.294 -2.252)"/><path fill="url(#z)" d="m146.611 181.189 8.029 4.879 4.21-6.649 1.016 9.799 8.653 5.802-7.363.541.62 9.347-5.634-8.683-7.535.087 3.503-6.251z" transform="translate(-3.294 -2.252)"/><path fill="url(#A)" d="m185.278 179.377 9.134 6.603 8.912-5.278-2.928 9.405 9.223 7.137-10.862-.664-3.148 9.179-4.387-9.843-10.246-.937 8.113-5.493z" transform="translate(-3.294 -2.252)"/><path fill="url(#B)" d="m235.294 185.936 7.092 7.853 10.731-3.153-6.651 8.024 5.853 8.117-10.328-2.35-7.183 7.889-.091-9.707-10.463-2.795 10.641-3.859z" transform="translate(-3.294 -2.252)"/><path fill="url(#C)" d="m264.428 210.723 9.707-2.306 4.436-8.827 1.951 7.23 9.313-1.912-8.025 6.794 1.236 7.002-6.785-2.752-8.693 6.434 3.511-8.377z" transform="translate(-3.294 -2.252)"/><path fill="url(#D)" d="m289.527 222.566 6.604-2.087 6.382-7.225-1.774 5.542 5.68-1.64-7.315 5.272-2.262 6.032-2.883-1.995-7.584 5.058 5.672-6.523z" transform="translate(-3.294 -2.252)"/><path fill="url(#E)" d="M180.214 65.568c-1.099-.509-2.208-.992-3.296-1.529 1.26-2.618 2.599-5.205 3.937-7.792l.878-1.694-1.569 1.145a184.184 184.184 0 0 0-8.217 6.351c-2.323-.817-4.644-1.647-6.99-2.402l-.669-.221.134.668c.466 2.287.976 4.565 1.528 6.836a389.656 389.656 0 0 0-8.127 5.964l-1.583 1.188 1.982-.296c2.917-.43 5.84-.824 8.751-1.287l1.624 6.395.439 1.709.869-1.528 5.142-9.021 8.639-2.346.856-.233-.799-.344a119.59 119.59 0 0 1-3.529-1.563zm-5.545 4.005-5.383 9.144-1.805-6.986-9.344 1.556 7.887-6.327-1.207-6.932 7.237 2.662 8.391-6.635-3.822 8.093 6.986 3.266z"/><path fill="url(#F)" d="M218.682 75.92c-1.655-.382-3.319-.727-4.964-1.15-.113-3.112-.161-6.22-.189-9.34l-.012-1.054-.74.798a297.544 297.544 0 0 0-6.729 7.507c-3.481-.663-6.952-1.382-10.441-1.983l-1.258-.216.831.936a303.712 303.712 0 0 0 6.527 7.144 494.484 494.484 0 0 0-7.165 8.297l-1.011 1.197 1.526-.451c3.636-1.065 7.269-2.128 10.889-3.243 2.125 2.414 4.229 4.838 6.378 7.224l1.161 1.296.063-1.723.375-9.826 9.94-3.661 1.095-.403-1.13-.241c-1.718-.362-3.438-.705-5.146-1.108zm-5.332 5.008-.502 10.193-6.68-7.532-11.256 3.567 6.883-8.594-6.278-7.433 10.75 2.211 6.834-7.891.401 9.494 10.25 2.413z"/><path fill="url(#G)" d="M257.746 80.833a360.57 360.57 0 0 1-4.281-9.286l-.411-.923-.359.971c-1 2.698-1.967 5.399-2.88 8.116-1.713-.087-3.427-.11-5.142-.174l-5.581-.15-1.611-.044 1.308.917c3.041 2.121 6.086 4.245 9.194 6.276a482.113 482.113 0 0 0-2.872 9.901l-.292 1.051.967-.541 9.021-5.075 8.929 6.26 1.881 1.319-.81-2.138-3.685-9.707 7.153-5.379.797-.6-.979-.059c-3.452-.194-6.9-.45-10.347-.735zm2.681 6.571 3.717 10.15-9.297-6.48-9.293 5.473 2.508-10.044-8.984-6.638 11.149.458 2.863-8.594 4.522 9.301 10.45.899z"/><path fill="url(#H)" d="M324.456 89.647c-1.864-2.476-3.701-4.976-5.604-7.428l-.912-6-.056-.351-.315.106c-.889.312-1.802.584-2.702.868-.967-1.125-1.876-2.299-2.796-3.468-.952-1.204-1.841-2.457-2.769-3.681l-2.039-2.709 1.296 3.175c1.028 2.5 2.141 4.96 3.354 7.37l-2.844 1.279-.806.364.695.49c2.089 1.454 4.168 2.91 6.324 4.27.986 2.879 2.025 5.73 3.124 8.562l.955 2.445.087-2.658c.047-1.481.11-2.969.154-4.459 1.279.948 2.563 1.9 3.859 2.82l3.748 2.669zm-5.502-3.144-.048 5.779-3.569-8.393-6.075-4.62 3.416-1.458-3.72-7.839 5.829 7.137 2.864-.858.699 6.182 5.529 7.634z"/><path fill="url(#I)" d="M298.887 86.772a476.532 476.532 0 0 0 3.313-5.853l.331-.596-.66.023a285.29 285.29 0 0 1-7.626.206 218.925 218.925 0 0 1-5.75-8.456l-.802-1.225.059 1.497c.111 2.902.296 5.798.519 8.697l-6.92.462-1.63.107 1.386.821c2.946 1.749 5.884 3.502 8.898 5.142.371 3.219.79 6.43 1.239 9.636l.162 1.17.72-.972 4.051-5.502c2.595 1.497 5.206 2.958 7.808 4.439l2.781 1.584-1.837-2.614zm-2.891 4.302-4.272 6.078-1.656-9.593-8.688-5.529 7.531-.399-.75-9.292 5.975 8.435 7.736-.051-3.665 6.083 6.134 8.941z"/><path fill="url(#J)" d="M149.529 56.662a220.831 220.831 0 0 0-7.95 5.029l-2.684 1.781 3.15-.802c1.449-.367 2.902-.727 4.352-1.102a234.797 234.797 0 0 0-1.598 4.566l-1.089 3.251 2.276-2.54c2.348-2.631 4.705-5.249 6.99-7.926 1.959-.704 3.914-1.422 5.889-2.082l.365-.123-.262-.276c-.717-.73-1.445-1.458-2.15-2.204.879-.983 1.729-1.999 2.638-2.958l2.834-3.045 2.707-2.918-3.381 2.196c-2.386 1.54-4.648 3.247-6.908 4.961a83.548 83.548 0 0 0-2.645-1.892l-.171-.115c-.186.15-.364.32-.551.474a125.533 125.533 0 0 0-1.812 5.725zm5.188-3.526 7.194-5.233-5.379 6.342 2.263 2.363-6.085 1.911-7.242 7.844 2.008-5.783-5.581 1.562 7.694-5.431 2.213-5.787z"/><path fill="url(#K)" d="m165.205 50.154-5.38 6.343 2.263 2.362-6.085 1.912-7.242 7.844 2.008-5.783-5.581 1.561 7.695-5.431 2.213-5.787 2.915 2.213z" transform="translate(-3.294 -2.252)"/><path fill="url(#L)" d="m183.74 58.306-3.822 8.093 6.986 3.267-8.941 2.159-5.383 9.143-1.805-6.986-9.344 1.556 7.887-6.327-1.207-6.932 7.238 2.662z" transform="translate(-3.294 -2.252)"/><path fill="url(#M)" d="m216.395 67.702.401 9.494 10.25 2.412-10.402 3.572-.502 10.193-6.68-7.532-11.256 3.567 6.883-8.594-6.278-7.433 10.75 2.211z" transform="translate(-3.294 -2.252)"/><path fill="url(#N)" d="m256.383 73.982 4.522 9.301 10.45.9-7.634 5.473 3.717 10.151-9.297-6.481-9.293 5.473 2.507-10.044-8.984-6.638 11.15.459z" transform="translate(-3.294 -2.252)"/><path fill="url(#O)" d="m291.455 74.59 5.975 8.435 7.736-.051-3.665 6.083 6.134 8.941-8.345-4.672-4.272 6.078-1.656-9.593-8.689-5.529 7.531-.399z" transform="translate(-3.294 -2.252)"/><path fill="url(#P)" d="m312.252 72.224 5.829 7.137 2.864-.858.699 6.182 5.529 7.633-4.925-3.563-.048 5.779-3.569-8.393-6.075-4.62 3.416-1.458z" transform="translate(-3.294 -2.252)"/><path fill="url(#Q)" d="M115.199 177.59a125.801 125.801 0 0 0 4.018 11.184c-7.399 1.475-14.327 3.047-20.674 4.682a130.809 130.809 0 0 1-4.915-13.549c2.234-.273 4.507-.534 6.8-.787v-.004h.011c.125-.012.252-.026.374-.04 1.148-.126 2.324-.253 3.486-.379 1.321-.136 2.63-.276 3.969-.423.246-.02.488-.043.733-.07l.091-.012v.008c1.958-.201 3.92-.396 5.913-.589.065-.005.129-.008.194-.021zm214.619 2.094c-.205.517-.43 1.027-.643 1.541.213-.506.395-1.027.6-1.553-33.108-3.958-73.171-6.612-116.626-6.612-34.275 0-66.755 1.655-95.454 4.298 1.378 3.692 2.917 7.306 4.656 10.809 26.64-5.094 59.208-8.834 94.246-9.51 57.121-1.114 106.931 6.174 135.841 15.032 1.65-3.336 3.183-6.742 4.53-10.234-8.394-1.348-17.477-2.614-27.15-3.771z" style="fill:url(#Q)"/><path fill="url(#R)" d="m410.936 184.533-2.521 10.943c-28.479-10.832-104.522-22.417-195.268-22.417-90.734 0-168.959 11.585-197.442 22.417l2.792-12.094c38.438-8.688 110.8-14.545 193.804-14.545 86.637.002 161.665 6.379 198.635 15.696z" style="fill:url(#R)"/><path fill="url(#S)" d="M408.417 195.477s-1.478-.479-4.246-1.363c-1.371-.481-3.108-.936-5.142-1.473a119.092 119.092 0 0 0-7.003-1.761 187.484 187.484 0 0 0-8.764-1.896 286.36 286.36 0 0 0-10.39-1.922c-3.709-.678-7.683-1.256-11.864-1.881-4.167-.709-8.571-1.352-13.157-2.067-4.597-.619-9.392-1.269-14.348-1.942-4.968-.557-10.107-1.225-15.399-1.749-10.581-1.09-21.756-2.125-33.341-2.875-11.576-.834-23.562-1.391-35.742-1.833-6.091-.225-12.227-.312-18.397-.474-6.167-.047-12.353-.095-18.543-.138-12.406.055-24.779.237-36.954.69-6.092.234-12.134.439-18.097.799-2.984.157-5.948.319-8.893.479-2.938.197-5.857.407-8.755.597-11.583.774-22.758 1.813-33.339 2.883l-15.399 1.759c-4.958.67-9.763 1.238-14.353 1.938-4.585.698-8.977 1.382-13.16 2.021-4.184.613-8.157 1.201-11.866 1.867a914.44 914.44 0 0 1-5.396.918c-1.729.344-3.395.672-4.994.985-3.216.599-6.137 1.254-8.778 1.869a122.39 122.39 0 0 0-7.012 1.741c-2.035.543-3.768.982-5.141 1.471-2.766.888-4.24 1.357-4.24 1.357s1.455-.533 4.184-1.541c1.353-.533 3.067-1.053 5.081-1.682a123.982 123.982 0 0 1 6.955-2.038c2.619-.722 5.525-1.514 8.717-2.239 1.591-.383 3.25-.777 4.966-1.191 1.73-.372 3.519-.755 5.367-1.15 7.392-1.639 15.793-3.176 25.021-4.443 4.603-.69 9.417-1.267 14.387-1.938 4.989-.568 10.141-1.153 15.44-1.762 10.609-1.074 21.81-2.117 33.417-2.892 2.899-.196 5.824-.394 8.77-.596 2.947-.158 5.921-.316 8.911-.482 5.973-.354 12.027-.56 18.13-.798 12.209-.454 24.622-.635 37.01-.695 6.208.048 12.412.1 18.592.142 6.173.162 12.334.25 18.436.474 12.2.443 24.21 1.007 35.813 1.837 11.608.75 22.812 1.796 33.417 2.879 5.308.529 10.454 1.2 15.438 1.762 4.976.671 9.782 1.322 14.392 1.945 4.593.742 9.028 1.26 13.203 2.078 4.158.812 8.121 1.552 11.813 2.401 3.7.773 7.156 1.556 10.331 2.361 3.188.746 6.095 1.528 8.705 2.274 2.631.683 4.943 1.397 6.955 2.058 2.011.632 3.724 1.153 5.074 1.688 2.73 1.014 4.188 1.548 4.188 1.548z" style="fill:url(#S)"/><path fill="url(#T)" d="M422.536 188.956c-8.238-2.918-16.891-4.747-25.533-6.392-8.662-1.612-17.39-2.863-26.141-3.972-17.504-2.162-35.092-3.725-52.697-4.941-35.227-2.381-70.558-3.313-105.857-3.27-35.318-.032-70.639.893-105.864 3.273-17.608 1.213-35.195 2.797-52.694 4.946-8.751 1.121-17.484 2.363-26.142 3.975-8.57 1.632-17.146 3.453-25.328 6.329l-.524 2.284c30.537-11.539 113.251-19.825 210.547-19.825 97.307 0 180.008 8.286 210.547 19.825l.451-1.957z" style="fill:url(#T)"/><path fill="url(#U)" d="M237.41 101.318c-97.293 0-180.005-8.045-210.544-19.265l7.121-6.086c30.197 11.398 107.471 23.918 203.688 23.918 96.221 0 173.599-11.654 203.803-23.057l6.485 5.225c-30.546 11.22-113.251 19.265-210.553 19.265Z" style="fill:url(#U)"/><path fill="url(#V)" d="m447.962 82.053-25.111 106.042c-30.541-11.214-113.242-19.257-210.547-19.257-97.295 0-180.01 8.043-210.547 19.257L26.866 82.053c30.539 11.22 113.25 19.265 210.544 19.265 97.302 0 180.007-8.045 210.552-19.265z" style="fill:url(#V)"/><path fill="url(#W)" d="m447.962 82.053-25.111 106.042c-17.064-6.26-50.43-11.541-93.514-14.979 8.894-12.753 13.958-29.534 14.711-46.517.427-9.838-.648-18.405-3.496-28.535 49.8-3.365 88.552-9.083 107.41-16.011z"/><path fill="url(#X)" d="M344.649 126.599c-.75 17.006-5.825 33.802-14.744 46.564-.295-.025-.6-.047-.899-.071 8.594-12.713 12.042-27.812 12.831-46.493.325-7.73-.671-17.76-5.205-28.278 1.516-.102 3.017-.198 4.513-.296 2.86 10.149 3.934 18.723 3.504 28.574z"/><path fill="#1b3d6d" d="m115.838 150.019-.473 1.876c-.838 3.156-3.9 5.846-6.892 5.991-3.531.178-5.3.269-8.836.462 1.509-6.193 2.261-9.261 3.771-15.355-5.391.107-8.088.166-13.48.285.555-2.314.842-3.413 1.397-5.719.851-3.281 3.894-5.9 6.88-5.889h1.313c-2.848.198-5.672 2.689-6.493 5.825-.361 1.5-.544 2.251-.902 3.764 5.391-.099 8.088-.138 13.477-.225-1.5 6.058-2.257 9.111-3.764 15.269 2.853-.143 4.273-.206 7.121-.336 2.985-.143 6.039-2.803 6.881-5.948zm52.239-28.416c.17-.601.311-1.097.447-1.568-.865 2.792-3.829 5.028-6.755 5.055a7334.08 7334.08 0 0 1-22.499-.265 538.96 538.96 0 0 1-.479 1.796c8.537.091 13.407.135 22.486.206 2.97-.031 6.004-2.349 6.8-5.224zm-13.826 14.415c.164-.616.298-1.089.419-1.552-.887 2.851-3.847 5.162-6.769 5.225-5.045.044-7.566.067-12.611.123-.183.683-.334 1.268-.48 1.812 4.636-.059 7.475-.09 12.593-.153 2.989-.072 6.038-2.504 6.848-5.455zm-.472 18.251c-9.864.296-19.721.627-29.584 1.003-3.011.119-4.802-2.357-3.995-5.517a3850.414 3850.414 0 0 1 6.367-24.675c.196-.739.289-1.107.486-1.849.207-.806.316-1.209.528-2.011.799-3.026 3.797-5.395 6.761-5.379.132.005-.972-.027-1.695-.051-2.961-.012-5.96 2.357-6.758 5.399a6393.954 6393.954 0 0 0-7.88 30.498c-.807 3.179.976 5.66 3.987 5.529a3802.12 3802.12 0 0 1 31.301-1.166c2.972-.118 6.023-2.562 6.85-5.49.192-.694.335-1.208.475-1.729-.838 2.918-3.874 5.331-6.843 5.438zm166.245-22.567c.518 0 1.062-.008 1.729-.008.734-2.828 1.098-4.242 1.829-7.085-6.785.107-10.182.163-16.971.249-.165.636-.319 1.208-.474 1.801 6.094-.068 9.144-.098 15.253-.174-.536 2.068-.837 3.167-1.366 5.217zM35.213 105.075c-3.984 19.498-7.824 39.02-11.588 58.57 3.679-.324 5.52-.478 9.197-.782 2.828-.506 5.611-3.597 6.44-7.195.135-.649.28-1.296.418-1.952-.915 3.439-3.603 6.338-6.34 6.805-3.011.229-4.517.348-7.525.581 3.764-18.641 7.604-37.275 11.587-55.872.838-3.4 3.523-5.933 6.274-6.011-.724-.067-1.451-.127-2.179-.198-2.756.074-5.455 2.618-6.284 6.054zm71.046 26.547c.508 0 1.041.008 1.689.008.74-2.923 1.107-4.379 1.842-7.278-6.783-.127-10.18-.198-16.967-.337-.166.691-.322 1.312-.476 1.959 6.083.103 9.144.154 15.245.245-.537 2.133-.799 3.275-1.333 5.403zm-32.221-.082c.292-1.362.547-2.666.403-2.054-.806 3.464-3.897 6.304-6.908 6.323-8.236.042-12.36.075-20.593.127l.936-4.314c.877-3.597 3.883-6.418 6.831-6.354 1.25.028 1.876.039 3.126.067v-.012l4.928.103c1.278-5.62 1.914-8.405 3.192-13.934-6.784-.375-10.166-.572-16.947-.991-.158.719-.308 1.445-.468 2.168 6.068.335 9.128.498 15.217.809-1.09 4.704-1.632 7.078-2.725 11.849-3.221-.063-4.822-.099-8.048-.166-2.949-.063-5.96 2.772-6.84 6.39-.56 2.643-.836 3.965-1.394 6.623 8.947-.118 13.427-.169 22.38-.272 3.008-.039 6.101-2.894 6.91-6.362zm13.852-17.413-1.715-.08c-2.896-.043-5.829 2.433-6.696 5.68a6391.597 6391.597 0 0 0-9.355 40.355c3.526-.237 5.292-.348 8.823-.568 2.997-.218 6.064-3.14 6.871-6.533.122-.525.253-1.039.376-1.564-.956 3.183-3.856 5.841-6.717 6.035-2.863.162-4.294.249-7.156.414a4046.228 4046.228 0 0 1 8.881-38.084c.867-3.231 3.786-5.703 6.688-5.655zm126.576 39.177c-2.869.009-4.303.021-7.176.036 2.65-9.316 5.293-18.628 7.948-27.942-3.712-.012-5.565-.012-9.273-.023-.166.595-.315 1.125-.474 1.686 2.99.012 4.561.012 7.555.012-2.657 9.321-5.312 18.646-7.954 27.974 3.58-.032 5.368-.043 8.945-.055 2.995-.044 6.059-2.322 6.873-5.131.178-.619.352-1.24.528-1.859.09-.321.239-.964.22-.973-.106.372-.216.747-.329 1.154-.819 2.804-3.868 5.086-6.863 5.121zm76.127-31.851c.169-.597.308-1.103.439-1.581-.869 2.847-3.824 5.155-6.743 5.237-9 .091-13.507.127-22.508.178-.185.643-.335 1.192-.486 1.707 8.543-.036 13.417-.064 22.492-.138 2.983-.08 6.012-2.468 6.806-5.403zm11.078-5.277c-.548.017-1.105.032-1.706.044-2.903.146-5.837 2.492-6.698 5.348a6068.759 6068.759 0 0 1-9.367 34.167c3.534.09 5.295.142 8.831.245 3.001.063 6.062-2.256 6.871-5.209.123-.462.238-.873.356-1.312-.976 2.738-3.851 4.83-6.703 4.775-2.867-.075-4.301-.119-7.164-.189a6114.76 6114.76 0 0 0 8.897-32.508c.858-2.857 3.773-5.204 6.683-5.361zm21.086 39.072c-2.848-.107-4.273-.158-7.132-.26 1.512-5.68 2.267-8.536 3.771-14.285-5.395-.072-8.088-.1-13.484-.162.364-1.355.542-2.043.906-3.41.813-2.831 3.629-5.126 6.468-5.343-.418.004-.852.004-1.322.004-2.978.016-5.996 2.366-6.861 5.324-.552 2.081-.833 3.116-1.39 5.187 5.395.07 8.093.106 13.488.193-1.509 5.723-2.26 8.566-3.772 14.222 3.543.135 5.312.206 8.847.355 2.998.127 6.05-2.243 6.892-5.312.525-2.049.794-3.088.47-1.853-.83 3.081-3.891 5.466-6.881 5.34zm11.505-23.35a67.711 67.711 0 0 1 0 0zm-4.873 4.349c.62.233 1.146.557 1.576.944 1.41-.853 2.468-2.029 2.804-3.365.206-.809.415-1.646.494-1.928-.008.02-.012.033-.02.048-.483 1.927-2.45 3.571-4.854 4.301zm-136.754 17.235c-2.878.036-4.32.059-7.2.1a8971.51 8971.51 0 0 1 7.946-28.255c-3.711-.02-5.562-.031-9.272-.056-.166.601-.317 1.137-.475 1.707 2.976.012 4.563.024 7.549.036-2.664 9.435-5.309 18.87-7.948 28.312 3.594-.059 5.312-.09 8.903-.143 2.911-.062 5.869-2.27 6.772-4.995.155-.557.292-1.047.443-1.576-.957 2.672-3.857 4.811-6.718 4.87zm46.848-36.322c-.438 0-.889.003-1.374.003-2.896.091-5.806 2.248-6.691 4.937-3.111 10.959-6.234 21.911-9.348 32.868 3.565-.004 5.355 0 8.922.007 2.938-.012 5.939-2.204 6.812-4.949.201-.704.514-1.821.47-1.674-.885 2.737-3.878 4.929-6.816 4.948-2.875-.011-4.317-.019-7.195-.019 2.969-10.407 5.935-20.817 8.901-31.224.85-2.579 3.555-4.649 6.319-4.897zm30.427 24.025c2.994-.024 6.051-2.331 6.853-5.218.158-.581.284-1.019.399-1.454-.913 2.761-3.854 4.937-6.742 4.957l-12.614-.06c-.186.64-.336 1.186-.482 1.695 4.627.024 7.471.047 12.586.08zm-90.77-24.361c-.576-.008-1.133-.015-1.754-.027-2.897.027-5.812 2.195-6.69 4.96a6672.178 6672.178 0 0 0-9.314 34.056c3.588-.095 5.291-.146 8.874-.222 2.925-.094 5.909-2.393 6.79-5.197.142-.497.262-.94.395-1.414-1.004 2.658-3.851 4.791-6.669 4.877-2.878.056-4.317.087-7.188.158a9503.538 9503.538 0 0 1 8.888-32.238c.88-2.746 3.779-4.905 6.668-4.953zm97.152 37.002c-9.866-.186-19.731-.332-29.594-.442-3.017-.024-4.798-2.343-3.992-5.178 2.55-8.958 3.823-13.443 6.374-22.445.193-.682.288-1.026.486-1.706.206-.751.312-1.122.521-1.868.794-2.799 3.803-5.103 6.757-5.205.403-.004.802-.02 1.204-.02-.963.012-1.931.023-2.894.036-2.967.099-5.964 2.397-6.77 5.201a11895.34 11895.34 0 0 1-7.883 27.683c-.798 2.832.987 5.146 3.997 5.173a3300.6 3300.6 0 0 1 31.311.487c2.982.039 6.026-2.216 6.849-5.095.192-.68.331-1.189.473-1.699-.831 2.863-3.864 5.114-6.839 5.078z"/><path fill="url(#Y)" d="M79.415 108.424a3026.728 3026.728 0 0 0-4.974 21.062c-.806 3.464-3.897 6.304-6.908 6.323-8.236.042-12.36.075-20.593.127l.936-4.314c.877-3.597 3.883-6.418 6.831-6.354 1.25.028 1.876.039 3.126.067v-.012l4.928.103c1.278-5.62 1.914-8.405 3.192-13.934-6.784-.375-10.166-.572-16.947-.991a5774.368 5774.368 0 0 0-9.228 42.894c-.822 3.579-3.616 6.643-6.438 7.125-3.011.229-4.517.348-7.525.581 3.764-18.641 7.604-37.275 11.587-55.872.838-3.409 3.531-5.94 6.288-6.016a1929.69 1929.69 0 0 0 31.733 2.709c3.009.23 4.798 3.129 3.992 6.502z"/><path fill="url(#Z)" d="M123.247 121.128a3558.555 3558.555 0 0 0-2.797 10.841c-.484 1.896-2.451 3.536-4.864 4.297 2.03.734 3.156 2.365 2.664 4.278-.961 3.764-1.443 5.659-2.407 9.459-.832 3.147-3.89 5.82-6.885 5.963-2.848.13-4.268.194-7.121.336 1.506-6.158 2.264-9.211 3.764-15.269-5.389.087-8.086.126-13.477.225.358-1.513.541-2.264.902-3.764.856-3.273 3.9-5.876 6.875-5.865l3.117.008v-.031c1.972.012 2.961.012 4.931.023.74-2.923 1.107-4.379 1.842-7.278-6.783-.127-10.18-.198-16.967-.337a3217.521 3217.521 0 0 0-5.466 22.702h-.008l-1.008 4.246c-.798 3.385-3.867 6.279-6.863 6.489-2.863.162-4.294.249-7.156.414a4046.228 4046.228 0 0 1 8.881-38.084c.866-3.231 3.785-5.703 6.687-5.655 10.454.446 20.911.856 31.371 1.228 3.006.108 4.798 2.679 3.985 5.774z"/><path fill="url(#aa)" d="M169.474 116.666c-.355 1.284-.537 1.927-.895 3.211-.796 2.871-3.831 5.186-6.81 5.213a7334.08 7334.08 0 0 1-22.499-.265c-.651 2.429-.973 3.649-1.625 6.098 7.2.028 10.798.035 17.996.059-.358 1.312-.536 1.967-.894 3.274-.808 2.95-3.856 5.362-6.847 5.434-5.045.044-7.566.067-12.611.123-.65 2.457-.972 3.688-1.618 6.169 9.291-.198 18.581-.363 27.867-.498-.359 1.327-.541 1.99-.906 3.321-.83 2.923-3.876 5.355-6.854 5.462-9.864.296-19.721.627-29.584 1.003-3.011.119-4.802-2.357-3.995-5.517a3850.414 3850.414 0 0 1 6.367-24.675c.196-.739.289-1.107.486-1.849.207-.806.316-1.209.528-2.011.799-3.026 3.797-5.395 6.761-5.379 11.707.337 23.418.618 35.133.827z"/><path fill="url(#ab)" d="M291.983 116.405c-.351 1.315-.533 1.979-.889 3.293-.797 2.935-3.827 5.329-6.805 5.411-9 .091-13.507.127-22.508.178-.648 2.315-.975 3.471-1.623 5.774 7.201-.008 10.798-.021 18.002-.036l-.897 3.214c-.801 2.891-3.862 5.209-6.844 5.229l-12.614-.06c-.648 2.299-.976 3.445-1.627 5.74 9.297.066 18.586.166 27.883.292-.371 1.315-.549 1.971-.917 3.281-.82 2.875-3.87 5.139-6.852 5.103-9.866-.186-19.731-.332-29.594-.442-3.017-.024-4.798-2.343-3.992-5.178 2.55-8.958 3.823-13.443 6.374-22.445.193-.682.288-1.026.486-1.706.206-.751.312-1.122.521-1.868.794-2.799 3.803-5.103 6.757-5.205 11.719-.128 23.425-.314 35.139-.575z"/><path fill="url(#ac)" d="M228.714 122.27c-2.461 8.634-4.926 17.275-7.386 25.913-.818 2.804-3.867 5.086-6.862 5.122-2.869.009-4.303.021-7.176.036 2.65-9.316 5.293-18.628 7.948-27.942-3.712-.012-5.565-.012-9.273-.023-2.621 9.225-3.931 13.842-6.558 23.116-.906 2.729-3.862 4.933-6.771 4.992-2.878.036-4.32.059-7.2.1a8971.51 8971.51 0 0 1 7.946-28.255c-3.711-.02-5.562-.031-9.272-.056a7710.5 7710.5 0 0 0-6.542 23.405c-.896 2.8-3.872 5.091-6.798 5.181-2.878.056-4.317.087-7.188.158a9503.538 9503.538 0 0 1 8.888-32.238c.883-2.757 3.793-4.926 6.694-4.958 7.018.104 10.526.15 17.553.214 2.587.023 4.262 1.733 4.184 4.02 1.204-2.279 3.842-3.965 6.431-3.949 4.103.027 6.153.036 10.26.043 2.854.004 4.277.004 7.131.004 3.015-.001 4.795 2.286 3.991 5.117z"/><path fill="url(#ad)" d="M247.153 117.069c-2.95 10.431-5.917 20.854-8.878 31.284-.885 2.737-3.878 4.929-6.816 4.948-2.875-.011-4.317-.019-7.195-.019 2.969-10.407 5.935-20.817 8.901-31.224.889-2.694 3.799-4.854 6.687-4.941l7.301-.048z"/><path fill="url(#ae)" d="M337.042 120.849c-1.122 4.467-1.679 6.686-2.8 11.097-.482 1.927-2.449 3.57-4.854 4.301 2.022.754 3.147 2.417 2.662 4.325-.968 3.755-1.445 5.62-2.413 9.336-.829 3.081-3.89 5.466-6.88 5.34-2.848-.107-4.273-.158-7.132-.26 1.512-5.68 2.267-8.536 3.771-14.285-5.395-.072-8.088-.1-13.484-.162.364-1.355.542-2.043.906-3.41.852-2.965 3.902-5.379 6.88-5.386l3.123-.008v-.028c1.97-.007 2.966-.007 4.933-.016.734-2.828 1.098-4.242 1.829-7.085-6.785.107-10.182.163-16.971.249a3745.565 3745.565 0 0 1-5.474 20.422s0 .008-.004.008c-.407 1.493-.612 2.235-1.006 3.721-.803 2.962-3.867 5.288-6.873 5.225-2.867-.075-4.301-.119-7.164-.189a6114.76 6114.76 0 0 0 8.897-32.508c.857-2.855 3.784-5.209 6.69-5.36 10.462-.28 20.92-.6 31.383-.956 3.006-.101 4.795 2.425 3.981 5.629z"/><path fill="url(#af)" d="M67.533 135.809c-7.031.04-10.549.063-17.579.111.373-1.715.565-2.571.932-4.282.877-3.569 3.891-6.37 6.834-6.303h.113c1.206.023 1.808.036 3.013.062v-.012c.762.012 1.147.024 1.916.04 1.199.023 1.808.036 3.014.063a3269.67 3269.67 0 0 1 3.193-13.832c-1.208-.063-1.813-.098-3.015-.166-5.577-.312-8.362-.465-13.932-.81-1.204-.066-1.809-.106-3.015-.181a5774.368 5774.368 0 0 0-9.228 42.894c-.822 3.579-3.616 6.643-6.438 7.125-1.806.138-2.709.209-4.517.348a4526.322 4526.322 0 0 1 11.59-55.402c.838-3.381 3.527-5.901 6.292-5.967 9.565.876 19.139 1.678 28.718 2.424 3.008.229 4.797 3.128 3.991 6.501a3026.728 3026.728 0 0 0-4.974 21.062c-.806 3.466-3.897 6.306-6.908 6.325z"/><path fill="url(#ag)" d="M108.957 155.967c-1.641.071-2.461.111-4.102.19 1.507-6.118 2.256-9.147 3.76-15.166-1.205.015-1.803.027-3.015.043-4.185.068-6.278.098-10.464.177.366-1.5.539-2.254.905-3.748.857-3.247 3.9-5.833 6.88-5.826h.097c1.208.013 4.167-.008 4.931-.008l3.021.008a6768.55 6768.55 0 0 1 1.834-7.235c-1.203-.02-1.807-.032-3.014-.051-5.581-.104-8.369-.163-13.948-.277-1.21-.02-1.813-.04-3.02-.06a3217.521 3217.521 0 0 0-5.466 22.702h-.008l-1.008 4.246c-.798 3.385-3.867 6.279-6.863 6.489-1.658.091-2.481.142-4.143.237a3919.033 3919.033 0 0 1 8.878-37.804c.869-3.216 3.79-5.668 6.691-5.625 9.447.406 18.897.778 28.357 1.094 3.007.107 4.798 2.678 3.986 5.773a3558.555 3558.555 0 0 0-2.797 10.841c-.674 2.299-2.47 3.669-4.864 4.297 2.063.64 3.156 2.365 2.664 4.278-.961 3.764-1.443 5.659-2.407 9.459-.831 3.15-3.89 5.823-6.885 5.966z"/><path fill="url(#ah)" d="M153.779 154.269c-8.86.253-17.713.541-26.57.885-3.01.115-4.798-2.354-3.993-5.486a3747.913 3747.913 0 0 1 6.372-24.549c.192-.73.287-1.098.482-1.833.209-.803.318-1.201.524-2.002.799-3.014 3.8-5.364 6.762-5.355 10.708.304 21.413.549 32.117.738-.355 1.284-.537 1.927-.895 3.211-.796 2.871-3.831 5.186-6.81 5.213a4079.76 4079.76 0 0 1-19.484-.229 605.737 605.737 0 0 1-3.014-.035c-.651 2.429-.973 3.649-1.625 6.098 1.212.004 1.81.004 3.017.007 5.993.024 8.987.032 14.979.051-.358 1.312-.536 1.967-.894 3.274-.808 2.95-3.856 5.362-6.847 5.434-3.84.036-5.759.051-9.597.091-1.205.016-1.807.02-3.015.032-.65 2.457-.972 3.688-1.618 6.169 1.207-.027 1.811-.043 3.015-.067 9.941-.203 14.912-.292 24.852-.431-.359 1.327-.541 1.99-.906 3.321-.828 2.924-3.874 5.356-6.852 5.463z"/><path fill="url(#ai)" d="M276.292 153.826c-8.854-.186-17.713-.319-26.575-.411-3.01-.031-4.791-2.354-3.993-5.186a18326.2 18326.2 0 0 0 6.374-22.483c.194-.683.793-2.828 1.003-3.575.798-2.808 3.808-5.118 6.766-5.225 10.708-.123 21.41-.304 32.117-.541-.351 1.315-.533 1.979-.889 3.293-.797 2.935-3.827 5.329-6.805 5.411-7.796.079-11.695.111-19.494.158-1.208.016-1.809.016-3.014.02-.648 2.315-.975 3.471-1.623 5.774 1.208 0 1.806 0 3.014-.004 5.999-.008 8.997-.02 14.989-.031l-.897 3.214c-.801 2.891-3.862 5.209-6.844 5.229-3.843-.02-5.762-.028-9.597-.047-1.208 0-1.812-.009-3.017-.013-.648 2.299-.976 3.445-1.627 5.74 1.213.008 1.813.008 3.026.02 9.945.079 14.913.138 24.857.272-.371 1.315-.549 1.971-.917 3.281-.823 2.877-3.872 5.14-6.854 5.104z"/><path fill="url(#aj)" d="M228.714 122.27c-2.461 8.634-4.926 17.275-7.386 25.913-.818 2.804-3.867 5.086-6.862 5.122-1.663.009-2.494.009-4.157.021 2.646-9.31 5.293-18.623 7.947-27.927h-3.018c-2.502-.012-3.752-.012-6.25-.015-1.21 0-1.816-.004-3.023-.008-2.621 9.225-3.931 13.842-6.558 23.116-.906 2.729-3.862 4.933-6.771 4.992-1.675.016-2.51.036-4.189.052 2.637-9.404 5.29-18.796 7.947-28.192-1.208-.007-11.078-.059-12.284-.071a7710.5 7710.5 0 0 0-6.542 23.405c-.896 2.8-3.872 5.091-6.798 5.181-1.669.032-2.505.052-4.171.087a10587.57 10587.57 0 0 1 8.892-32.137c.877-2.748 3.792-4.91 6.683-4.94 5.817.079 8.729.115 14.543.166 2.587.023 4.262 1.733 4.184 4.02 1.204-2.279 3.842-3.965 6.431-3.949 1.206.012 1.81.012 3.021.016 2.894.016 4.342.02 7.238.027 1.205.004 1.809.004 3.021.004h4.109c3.017-.001 4.797 2.286 3.993 5.117z"/><path fill="url(#ak)" d="M231.458 153.301a725.33 725.33 0 0 0-4.175-.011c2.971-10.415 5.94-20.833 8.902-31.245.881-2.696 3.8-4.861 6.688-4.948l4.28-.028c-2.95 10.431-5.917 20.854-8.878 31.284-.885 2.737-3.879 4.929-6.817 4.948z"/><path fill="url(#al)" d="M322.757 155.248c-1.643-.064-2.464-.087-4.107-.149 1.505-5.711 2.251-8.579 3.764-14.36a432.099 432.099 0 0 0-3.017-.035c-4.186-.052-6.271-.083-10.462-.131l.9-3.416c.854-2.986 3.902-5.411 6.88-5.419h.107c1.208 0 4.167-.044 4.933-.044 1.208-.007 1.809-.007 3.01-.011.739-2.836 1.102-4.261 1.836-7.121-1.208.016-1.805.028-3.018.047-5.581.087-8.369.126-13.953.209-1.201.012-1.809.025-3.019.04-2.187 8.234-6.089 22.665-6.484 24.151-.803 2.962-3.867 5.288-6.873 5.225-1.659-.043-2.492-.067-4.139-.111a6031.715 6031.715 0 0 0 8.886-32.638c.865-2.867 3.796-5.229 6.702-5.387 9.452-.246 18.907-.533 28.358-.877 3.005-.102 4.794 2.425 3.98 5.629-1.122 4.467-1.679 6.686-2.8 11.097-.482 1.927-2.449 3.57-4.854 4.301 2.022.754 3.147 2.417 2.662 4.325-.968 3.755-1.445 5.62-2.413 9.336-.828 3.08-3.889 5.465-6.879 5.339z"/><path fill="#1b3d6d" d="M363.74 154.715c-.158.679-.312 1.315-.45 1.888-1.113 4.092-4.901 7.121-8.617 6.883-2.481-.166-3.717-.244-6.196-.398-.751-.047-1.13-.071-1.873-.111-1.126-.071-1.686-.102-2.805-.173 3.381-13.468 6.861-26.952 10.143-40.447-1.391.04-2.093.056-3.484.087 1.189-5.635 2.03-8.476 3.211-14.182.707-.04 1.347-.075 1.963-.106-1.186 4.94-1.773 7.401-2.955 12.278l3.484-.099a6348.261 6348.261 0 0 1-9.996 40.676c1.118.062 1.671.098 2.796.162v-.005c.071 0 .126.005.186.008 1.03.064 1.603.1 2.556.154.264.017.533.032.797.048.932.059 1.576.098 2.65.162.47.032.924.008 1.39-.059.261-.04.525-.13.787-.201.189-.048.379-.076.568-.143a8.31 8.31 0 0 0 1.062-.482c.075-.039.158-.067.234-.11a9.128 9.128 0 0 0 1.208-.81 9.909 9.909 0 0 0 3.341-5.02zm43.25-26.595c.676-.012 1.292-.02 1.845-.028.806-3.831 1.249-5.829 2.05-9.675h-.012c-10.545.419-21.09.816-31.635 1.196v-.02c-.979.036-1.962.079-2.95.106.466-2.014.659-3.025 1.117-5.054 1.031-4.218 4.617-7.821 8.219-8.318-.478.028-.983.064-1.572.107-3.732.253-7.57 3.989-8.637 8.353-.569 2.797-.846 4.194-1.41 6.975 11.543-.321 23.088-.688 34.633-1.094-.644 2.941-1.015 4.569-1.648 7.452zm2.857 37.527c-.771-.063-9.613-.797-18.527-1.513-6.22-.489-13.459-1.05-18.361-1.414-3.682-.342-5.853-3.87-4.897-8.04 1.722-7.22 2.587-10.86 4.305-18.227 1.007-4.292 4.817-7.835 8.562-7.966l-1.69.012c-3.787.047-7.677 3.625-8.7 7.95a3256.267 3256.267 0 0 1-4.716 20.063c-.965 4.142 1.216 7.661 4.901 8.025 12.969.991 25.919 2.078 38.881 3.254 3.78.359 7.674-3.207 8.689-8.041.49-2.706.73-4.17 1.168-6.635-.323 1.555-.553 2.63-.927 4.427-1.012 4.847-4.905 8.445-8.688 8.105zm14.268-35.135c-.181.909-.375 1.844-.576 2.856-1.023 4.987-4.909 8.902-8.693 8.807-9.908-.241-14.868-.354-24.782-.561-1.197-.024-1.793-.039-2.986-.063-.17.751-.32 1.411-.458 2.034 9.324.248 18.653.509 27.978.782 3.784.115 7.674-3.768 8.688-8.739.699-3.575 1.703-9.195 1.663-9.191-.249 1.217-.508 2.477-.783 3.835-.015.083-.035.165-.051.24z"/><path fill="url(#am)" d="M373.113 114.972c-.897 3.875-1.338 5.802-2.236 9.641h.008a5730.903 5730.903 0 0 1-7.105 30.008c-1.118 4.096-4.917 7.153-8.63 6.919-2.473-.15-3.708-.225-6.189-.372v.005c-1.125-.064-1.678-.1-2.796-.162a6331.858 6331.858 0 0 0 9.996-40.676l-3.484.099c1.182-4.89 1.773-7.342 2.959-12.295 5.016-.28 7.519-.426 12.531-.734 3.736-.178 5.949 3.207 4.946 7.567z"/><path fill="url(#an)" d="M427.811 112.104a3634.948 3634.948 0 0 1-4.273 21.264c-1.023 4.987-4.909 8.767-8.693 8.673-9.252-.222-18.51-.427-27.768-.621-.813 3.61-1.228 5.533-2.038 9.104 11.544.498 23.045 1.109 34.585 1.714-.45 2.149-.644 3.172-1.089 5.304-1.013 4.846-4.942 8.325-8.729 7.989-2.473-.217-3.673-.205-6.149-.423 0 0-20.457-1.635-30.698-2.39-3.682-.342-5.853-3.87-4.897-8.04 1.722-7.22 2.587-10.86 4.305-18.227 1.019-4.345 4.913-7.938 8.696-7.982 9.258-.118 18.515-.245 27.772-.375.813-3.855 1.249-5.85 2.066-9.744-11.545.483-23.065.964-34.613 1.347.466-2.014.659-3.025 1.117-5.054 1.066-4.385 4.905-8.14 8.649-8.397 2.473-.17 3.716-.261 6.193-.438v-.004a3582.825 3582.825 0 0 0 30.549-2.394c3.785-.326 6.039 3.592 5.015 8.694z"/><path fill="url(#ao)" d="M355.15 161.54c-1.276-.075-1.919-.115-3.203-.193l-2.8-.17a5935.526 5935.526 0 0 0 10-40.923c-1.2.035-1.797.051-2.986.083-.207.004-.299.012-.493.016 1.177-4.921 1.773-7.393 2.954-12.381 3.822-.217 5.731-.332 9.545-.564 3.735-.178 5.948 3.207 4.945 7.567-.897 3.875-1.338 5.802-2.236 9.641h.008a5730.903 5730.903 0 0 1-7.105 30.008c-1.116 4.092-4.916 7.149-8.629 6.916z"/><path fill="url(#ap)" d="M409.847 165.647c-1.275-.11-24.658-2.045-33.897-2.71-3.686-.35-5.858-3.909-4.898-8.107a3708.081 3708.081 0 0 0 4.305-18.356c1.014-4.376 4.917-7.999 8.696-8.042 9.914-.125 26.572-.362 27.772-.383.817-3.881 1.225-5.837 2.038-9.758-1.2.046-1.792.071-2.989.126-10.545.419-21.09.816-31.635 1.196.466-2.042.695-3.061 1.154-5.103 1.066-4.419 4.909-8.206 8.649-8.471 1.28-.091 4.996-.355 6.196-.442v-.008c9.187-.671 18.381-1.401 27.56-2.176 3.784-.328 6.038 3.59 5.015 8.693a3720.233 3720.233 0 0 1-4.272 21.264c-1.023 4.987-4.909 8.902-8.693 8.807-9.909-.241-14.869-.355-24.782-.561-1.197-.024-1.793-.039-2.986-.063-.813 3.606-1.228 5.403-2.038 8.974 1.201.055 1.797.075 2.986.13 10.552.481 21.089.992 31.631 1.528l-1.121 5.36c-1.015 4.844-4.908 8.442-8.691 8.102z"/><path fill="#fff" d="M77.298 111.287a3032.946 3032.946 0 0 0-3.895 16.553c-.805 3.471-3.894 6.306-6.908 6.314-5.005.012-7.507.012-12.513.02-.764.004-1.146.004-1.91.004 1.151-3.076 3.835-5.355 6.494-5.324 1.251.012 1.878.021 3.129.036v-.004c1.973.016 2.956.028 4.926.047a3227.37 3227.37 0 0 1 3.191-13.819c-.016 0-.018 0-.034-.004.318-1.346.472-2.023.787-3.361.149-.651.229-.975.379-1.623-2.409-.138-3.616-.214-6.025-.359-4.367-.261-6.554-.403-10.916-.68-2.417-.153-3.622-.232-6.031-.394a6069.07 6069.07 0 0 0-9.23 42.97c-.823 3.586-3.606 6.655-6.431 7.113a.173.173 0 0 1-.069.012c3.286-15.936 6.614-31.853 10.057-47.745.837-3.38 3.531-5.924 6.293-6.038 8.561.656 17.127 1.267 25.701 1.824 2.964.165 3.367 2.882 3.005 4.458zM118.795 133.144c-.453 1.461-1.335 2.211-2.05 2.626-.376.178-.744.371-1.159.498 1.62.521 2.084 1.829 1.793 2.792a2818.785 2818.785 0 0 0-2.569 9.486c-.808 3.029-3.677 5.565-6.524 5.9-.117.02-.243.052-.367.056-.422.02-.635.031-1.06.047 1.043-4.207 1.566-6.303 2.606-10.466h-.029c.308-1.249.468-1.877.781-3.121.156-.608.228-.905.38-1.509-2.413.031-3.62.043-6.03.08-2.162.023-3.237.039-5.394.071-.769.004-1.157.011-1.928.023 1.167-2.76 3.865-4.834 6.519-4.842 1.25 0 6.08-.047 8.053-.047.732-2.903 1.102-4.357 1.836-7.239-.013 0-.013.003-.034.003.316-1.229.468-1.843.788-3.068.148-.6.226-.893.382-1.489-2.417-.048-3.62-.071-6.036-.123-4.37-.094-6.562-.146-10.934-.244-2.417-.064-3.618-.091-6.031-.154a3516.777 3516.777 0 0 0-5.474 22.745h-.004c-.399 1.693-.603 2.543-1.009 4.249-.772 3.262-3.639 6.043-6.529 6.421a6049.446 6049.446 0 0 1 7.329-31.042c.865-3.207 3.784-5.683 6.687-5.679 10.134.328 15.201.474 25.339.743 2.942.241 3.31 2.682 2.994 3.958-.928 3.716-1.394 5.579-2.326 9.325zM166.294 120.821c-1.342 1.69-3.452 2.859-5.562 2.876-6.586-.079-9.882-.127-16.469-.226-2.411-.031-3.618-.055-6.033-.091l-1.617 6.099h.03c-.468 1.757-.697 2.629-1.166 4.391H141.514c4.729-.003 7.094-.007 11.824-.011a7.404 7.404 0 0 1-.878 1.402c-1.346 1.75-3.482 2.989-5.597 3.029-2.629.02-3.947.028-6.579.047-2.411.02-3.615.032-6.028.048-.65 2.464-2.288 8.842-2.754 10.624.568-.017.854-.024 1.416-.036 1.851-.047 2.769-.074 4.618-.119 8.679-.221 13.015-.316 21.695-.474a7.48 7.48 0 0 1-.87 1.406c-1.35 1.77-3.491 3.037-5.618 3.116-9.422.249-14.133.398-23.547.727-1.356.059-3.45-1.106-3.013-3.736a3501.487 3501.487 0 0 1 5.289-20.316c.194-.73.294-1.102.481-1.837.213-.797.314-1.196.525-1.994.802-3.005 3.801-5.379 6.771-5.396 9.015.187 18.027.345 27.045.471zM244.566 121.2a21214.45 21214.45 0 0 1-7.331 25.818c-.852 2.642-3.672 4.759-6.512 4.913 2.942-10.313 4.412-15.462 7.351-25.798.861-2.642 3.669-4.756 6.492-4.933zM223.593 121.228h-1.098c-2.411 0-13.873-.028-16.294-.035-.833 0-1.652.213-2.45.528-.671.26-1.304.644-1.888 1.083-.215.162-.437.324-.631.501-.167.163-.336.327-.492.502-.372.415-.723.865-.977 1.347.028-.774-.201-1.438-.538-2.025a3.498 3.498 0 0 0-.816-1.003c-.721-.593-1.665-.983-2.829-.996-4.604-.031-6.91-.047-11.515-.094-2.894.039-5.816 2.215-6.694 4.96a7354.357 7354.357 0 0 0-7.338 26.473c2.83-.229 5.634-2.434 6.494-5.139a6082.96 6082.96 0 0 1 6.547-23.416l6.039.039c1.287.012 1.935.02 3.224.02 2.415.021 3.624.023 6.041.036-.153.534-.23.802-.378 1.339a319.441 319.441 0 0 0-.784 2.769h.03c-2.72 9.582-4.07 14.38-6.79 24.048.46-.004.688-.004 1.14-.009.095 0 .189-.023.286-.035 2.781-.222 5.608-2.319 6.487-4.953 2.627-9.28 3.934-13.906 6.56-23.132 2.416.009 12.891.032 15.308.036-.149.529-.229.802-.383 1.327-.306 1.103-4.821 17.035-7.535 26.583.447-.003.664-.003 1.11-.003.103-.003.215-.032.32-.032 2.875-.168 5.758-2.388 6.541-5.09 2.521-8.85 3.784-13.27 6.311-22.121.458-2.446-1.533-3.497-3.008-3.508zM288.789 120.722c-1.347 1.738-3.46 2.958-5.565 3.021-6.587.076-9.881.111-16.465.158-2.417.016-3.626.028-6.039.048-.652 2.31-2.292 8.25-2.753 9.893h1.414c1.853 0 11.718.004 16.449.008-.229.485-.538.936-.872 1.362-1.355 1.706-3.487 2.879-5.601 2.899-2.633-.013-3.949-.02-6.575-.028-2.417-.008-3.626-.016-6.043-.02-.643 2.291-2.282 8.195-2.752 9.838.569.004.849.004 1.422.012l4.617.04c8.68.095 13.017.154 21.703.295a7.257 7.257 0 0 1-.874 1.359c-1.359 1.698-3.496 2.848-5.62 2.831a2258.36 2258.36 0 0 0-23.558-.344c-1.41 0-3.267-1.208-3.01-3.561 2.121-7.453 3.18-11.189 5.289-18.685.201-.679.296-1.027.485-1.711.209-.746.32-1.113.525-1.864.803-2.812 3.804-5.11 6.766-5.212 9.015-.082 18.036-.196 27.057-.339zM332.564 133.139c-.454 1.469-1.339 2.216-2.054 2.623-.378.182-.746.367-1.153.485 1.568.576 1.947 2.031 1.786 2.812-1.027 3.756-1.541 5.62-2.567 9.341-.806 2.955-3.674 5.229-6.521 5.335-.123.007-.249.028-.375.023-.414-.016-.631-.027-1.055-.04 1.04-3.965 3.583-13.834 3.737-14.415-2.414-.028-9.273-.095-11.429-.118-.767 0-1.153-.008-1.92-.017 1.161-2.527 3.858-4.454 6.517-4.447 1.244 0 6.082-.02 8.053-.011.738-2.836 2.275-8.954 2.591-10.174.154-.601.226-.893.384-1.49-2.418.048-3.626.075-6.043.119-4.377.079-6.564.119-10.932.19-2.417.039-3.622.055-6.031.095a4289.991 4289.991 0 0 1-5.482 20.407h-.003l-1.007 3.725c-.777 2.847-3.649 5.087-6.541 5.201 2.47-8.997 4.909-18.006 7.335-27.014.865-2.879 3.792-5.229 6.694-5.364 10.138-.202 15.209-.324 25.348-.589 1.228-.035 3.625 1.055 3.001 3.863-.94 3.8-1.401 5.693-2.333 9.46zM370.64 118.384c-.458 1.935-.683 2.902-1.137 4.834h.012a5541.394 5541.394 0 0 1-7.106 29.945c-1.117 4.079-4.917 7.132-8.621 6.919-.091-.004-.126-.004-.214-.012-.438-.023-.655-.032-1.086-.059a4349.815 4349.815 0 0 0 8.515-35.048c-.004 0-.007-.003-.012-.003.459-1.913.688-2.875 1.143-4.803-.68.023-1.023.036-1.707.051-.707.023-1.059.036-1.766.055.138-.558.202-.837.34-1.398.592-2.492.892-3.737 1.481-6.236 2.626-.127 3.929-.182 6.556-.313 3.748.251 4.257 3.524 3.602 6.068zM425.328 116.098a3482.673 3482.673 0 0 1-3.16 15.636 12.373 12.373 0 0 1-.975 2.863l-.104.237c-.182.387-.407.754-.62 1.11-.079.123-.152.253-.229.372-.213.316-.432.604-.664.892-.123.149-.236.292-.371.434a13.13 13.13 0 0 1-.664.688c-.166.149-.335.289-.509.435-.218.173-.427.339-.645.485-.213.155-.438.281-.654.403-.202.107-.399.222-.589.309-.288.126-.558.209-.838.296-.157.047-.318.115-.484.15-.443.09-.897.146-1.342.139-8.714-.167-13.077-.245-21.798-.404l-5.971-.098c-.817 3.601-1.225 5.39-2.038 8.953h.012l-1.146 4.98c.683.04 1.023.055 1.702.087 10.959.581 21.931 1.205 32.895 1.893a14.106 14.106 0 0 1-.481 1.579c-1.466 3.95-4.851 6.699-8.18 6.418-.087-.004-.126-.004-.213-.012-2.393-.201-3.585-.296-5.975-.49v.004a1868.006 1868.006 0 0 0-24.716-1.849c-1.393-.071-4.773-1.473-3.546-6.505 1.279-5.418 1.916-8.147 3.195-13.653 1.015-4.388 4.905-7.974 8.693-7.974H413.682c.817-3.886 1.217-5.841 2.034-9.778h-.01c.465-2.212.687-3.314 1.141-5.534.135-.651.202-.979.333-1.623-.676.027-1.016.043-1.698.079-2.39.107-3.585.166-5.972.273-8.93.411-17.86.778-26.797 1.125 1.461-3.768 4.861-6.785 8.183-6.975.087-.004.131-.004.221-.011l5.972-.356v-.004c9.831-.592 14.752-.909 24.577-1.591 1.521-.073 5.028 1.215 3.662 7.017z"/><path fill="url(#aq)" d="M1.873 187.59 26.866 82.053c30.539 11.22 113.25 19.265 210.544 19.265 97.303 0 180.008-8.045 210.552-19.265l-.028.127c-25.117 27.147-85.812 60.22-232.127 53.088-105.401-5.134-172.161 21.118-213.934 52.322Z" opacity="0.2" style="fill:url(#aq)"/><path fill="url(#ar)" d="M26.866 82.053s1.578.501 4.544 1.438c1.467.504 3.326.963 5.509 1.513 1.09.279 2.262.576 3.512.892 1.266.268 2.604.557 4.022.862 1.417.295 2.909.607 4.476.936 1.576.284 3.226.581 4.942.884 1.722.301 3.511.62 5.367.948 1.866.274 3.798.565 5.792.865 7.977 1.208 17.022 2.262 26.896 3.357 4.936.537 10.094.988 15.419 1.505 5.342.411 10.852.908 16.532 1.291 11.353.786 23.339 1.497 35.742 2.058 12.401.604 25.233.995 38.262 1.287 6.519.174 13.093.206 19.687.316l19.837.083c6.632-.032 13.254-.06 19.858-.092 6.593-.106 13.164-.142 19.672-.308 13.041-.292 25.873-.687 38.271-1.296 3.1-.142 6.176-.292 9.226-.438 3.045-.17 6.054-.34 9.04-.506 5.968-.288 11.801-.742 17.476-1.109 5.676-.388 11.197-.877 16.532-1.296 5.332-.513 10.486-.968 15.419-1.497 4.937-.577 9.676-1.031 14.164-1.643 4.489-.568 8.751-1.086 12.732-1.719 1.998-.299 3.929-.587 5.797-.864 1.856-.327 3.646-.643 5.363-.944 1.718-.303 3.365-.6 4.949-.884 1.556-.328 3.057-.644 4.474-.94 1.414-.304 2.757-.589 4.021-.857 1.252-.319 2.418-.612 3.512-.892 2.18-.549 4.036-1.008 5.505-1.513 2.966-.937 4.545-1.438 4.545-1.438s-1.567.533-4.514 1.524c-1.461.538-3.311 1.023-5.49 1.615-1.082.301-2.254.621-3.5.968-1.259.289-2.595.604-4.008.933-1.41.328-2.903.667-4.463 1.031-1.572.312-3.22.636-4.934.979-1.714.332-3.503.679-5.354 1.047-1.86.312-3.796.64-5.782.971-7.97 1.378-17.006 2.611-26.884 3.788-4.94.585-10.095 1.087-15.427 1.667-5.344.47-10.86 1.023-16.54 1.473-11.362.905-23.349 1.778-35.773 2.346-12.417.647-25.257 1.083-38.306 1.421-6.524.199-13.107.258-19.715.383-6.596.056-13.227.104-19.85.154-6.636-.05-13.268-.099-19.873-.154-6.604-.129-13.184-.185-19.706-.383-13.051-.343-25.891-.774-38.309-1.43-12.421-.56-24.41-1.437-35.77-2.341-5.682-.446-11.199-1.003-16.541-1.472-5.332-.577-10.49-1.083-15.426-1.664-9.88-1.176-18.917-2.414-26.886-3.788-1.991-.339-3.919-.664-5.78-.979-1.853-.359-3.642-.707-5.356-1.042-1.719-.34-3.361-.663-4.933-.976-1.56-.363-3.052-.707-4.464-1.031-1.415-.328-2.751-.644-4.011-.933-1.246-.347-2.414-.667-3.503-.968-2.168-.591-4.026-1.077-5.482-1.615-2.944-.99-4.515-1.523-4.515-1.523z"/><path fill="#bcbec0" d="M360.435 196.221h-3.396v-1.438h8.302v1.438h-3.396v9.127h-1.509zm7.231-1.438h1.615l3.772 5.792 3.739-5.792h1.577v10.562h-1.474v-8.101l-3.771 5.728h-.21l-3.741-5.728v8.101h-1.508z"/><path fill="url(#as)" d="M447.505 83.057c-6.425 26.057-9.64 39.08-9.64 39.08l-9.646 39.078-6.468 26.692h.008c-.135-.045-.281-.097-.438-.152a67.88 67.88 0 0 0-3.037-1.01 85.468 85.468 0 0 0-4.441-1.322s-2.596-.748-6.512-1.682c-3.918-.949-9.177-2.043-14.449-3.013-10.543-1.963-21.182-3.363-21.182-3.363s-9.983-1.383-20.003-2.455c-10.019-1.088-20.059-1.904-20.059-1.904s-10.048-.85-20.099-1.506a1250.434 1250.434 0 0 0-20.107-1.182s-10.067-.441-20.13-.887c-10.062-.393-20.13-.621-20.13-.623 0 0-9.826-.254-19.648-.375-9.824-.07-19.649-.148-19.649-.148h-.04s-10.311.084-20.612.162c-10.31.117-20.612.402-20.612.402s-10.062.318-20.131.645c-10.065.383-20.13.92-20.13.92s-10.052.51-20.106 1.203a1081.02 1081.02 0 0 0-20.091 1.543s-8.966.762-17.913 1.709c-8.951.963-17.875 2.156-17.875 2.156l-4.274.584s-9.994 1.364-19.917 3.227c-4.958.922-9.903 1.947-13.591 2.84-3.689.885-6.129 1.557-6.129 1.557s-.595.173-1.484.427c-.895.235-2.088.592-3.265.979-.594.184-1.183.364-1.738.547-.506.182-.979.342-1.387.489l6.343-27.461 8.747-38.578 7.454-32.898s.432-1.893 1.292-5.68c-.934 3.768-1.398 5.65-1.398 5.65l-8.089 32.752-9.483 38.4L.4 188.87c0 .008 0 .012-.004.019L0 190.522l1.625-.545c.003-.008.011-.008.018-.013 0 0 .573-.188 1.437-.483a68.733 68.733 0 0 1 3.188-1.023 76.88 76.88 0 0 1 3.226-.922c.883-.244 1.472-.402 1.472-.402 0-.002 2.417-.646 6.076-1.477 3.659-.848 8.577-1.818 13.52-2.678 9.879-1.754 19.847-2.998 19.847-2.998l4.262-.541s8.904-1.092 17.835-1.963c8.929-.912 17.874-1.643 17.874-1.643s10.012-.84 20.043-1.465c10.027-.66 20.072-1.133 20.072-1.133s10.038-.498 20.088-.842c10.05-.291 20.096-.572 20.096-.572s10.289-.25 20.574-.336c10.287-.053 20.58-.098 20.58-.098h.04s9.81.041 19.608.074c9.811.086 19.619.305 19.619.305 0 .004 10.053.199 20.102.549 10.043.41 20.086.816 20.086.816s10.04.467 20.074 1.104c10.033.621 20.053 1.438 20.053 1.438s10.012.799 20.012 1.809a767.611 767.611 0 0 1 19.964 2.238s10.604 1.291 21.106 3.129c5.256.905 10.492 1.93 14.381 2.844 3.892.887 6.453 1.584 6.453 1.584s2.216.566 4.395 1.254c1.1.322 2.183.688 2.99.963a115.235 115.235 0 0 0 1.371.471l.973.334.229-.984c0-.008 0-.008.002-.012l6.402-27.735 8.905-39.257c.002-.003 2.973-13.087 8.907-39.255z"/></svg>