<svg xmlns="http://www.w3.org/2000/svg" width="1178.7347" height="448.33545" viewBox="0 0 1178.7347 448.33545"><defs><clipPath id="a" clipPathUnits="userSpaceOnUse"><path d="M0 1080h1080V0H0Z"/></clipPath></defs><g clip-path="url(#a)" transform="matrix(1.33333 0 0 -1.33333 -130.632 944.168)"><path d="m0 0-3.064-5.993V-28.45L0-34.414c2.224-.426 8.115-4.563 8.115-4.563 62.283-6.91 72.753-41.337 81.641-54.17 2.915-3.428 7.067-3.908 7.177-3.786h71.123C149.821-21.485 100.993-2.1 89.071 1.567c0 0-45.48 19.464-89.071-1.567" style="fill:#4053a4;fill-opacity:1;fill-rule:nonzero;stroke:none" transform="translate(266.17 636.731)"/><path d="M0 0v34.414c37.552 18.117 76.506 6.183 86.578 2.529 0 0-7.808-20.31-22.721-33.31C63.857 3.633 38.62 15.869 0 0" style="fill:#4053a4;fill-opacity:1;fill-rule:nonzero;stroke:none" transform="translate(266.17 602.126)"/><path d="M0 0c55.063-12.618 67.872-65.769 67.872-65.769h36.326c-18.234 75.448-67.062 94.833-78.984 98.5 0 0-.829.355-2.37.917 0 0-7.931-21.029-20.932-32.118z" style="fill:#01bacb;fill-opacity:1;fill-rule:nonzero;stroke:none" transform="translate(330.027 605.759)"/><path d="M0 0c-12.269 5.614-27.002 9.325-44.516 9.325 0 0 34.031 15.486 63.857 3.632L2.056-.778Z" style="fill:#283689;fill-opacity:1;fill-rule:nonzero;stroke:none" transform="translate(310.686 592.802)"/><path d="M0 0h-34.414c-4.349-68.263-65.376-94.552-62.519-96.933v-71.123c75.448 18.235 94.833 67.063 98.5 78.985 0 0 19.464 45.48-1.567 89.071" style="fill:#00713e;fill-opacity:1;fill-rule:nonzero;stroke:none" transform="translate(362.832 539.93)"/><path d="M0 0h34.414c18.118-37.552 6.183-76.506 2.529-86.578 0 0-20.31 7.808-33.31 22.721C3.633-63.857 15.869-38.62 0 0" style="fill:#00713c;fill-opacity:1;fill-rule:nonzero;stroke:none" transform="translate(328.226 539.93)"/><path d="M0 0c-12.618-55.063-65.769-67.872-65.769-67.872v-36.326c75.448 18.234 94.833 67.062 98.5 78.984 0 0 .355.829.917 2.37 0 0-21.03 7.931-32.118 20.932z" style="fill:#00ad57;fill-opacity:1;fill-rule:nonzero;stroke:none" transform="translate(331.859 476.073)"/><path d="M-.735 2.206c5.614 12.269 9.979 48.571 10.06 42.31 0 0 15.486-34.031 3.632-63.857L-.778-2.056Z" style="fill:#014e31;fill-opacity:1;fill-rule:nonzero;stroke:none" transform="translate(318.902 495.414)"/><path d="M0 0c-22.385 0-40.532 18.061-40.532 40.341S-22.385 80.682 0 80.682c22.385 0 40.532-18.061 40.532-40.341S22.385 0 0 0m96.933 40.341S71.887 102.86 0 102.86v34.414c-7.62 3.81-73.794-22.114-62.71-96.742l.987 2.105-34.002-.022-1.399-2.083C-79.244-29.425.192-32.541-.382-21.796v-35.943c70.74 40.15 62.136 98.08 62.136 98.08z" style="fill:#002923;fill-opacity:1;fill-rule:nonzero;stroke:none" transform="translate(266.17 499.457)"/><path d="M0 0v34.414c-71.887 0-96.933 62.519-96.933 62.519h-71.123c18.235-75.448 67.063-94.833 78.985-98.5 0 0 45.48-19.464 89.071 1.567" style="fill:#a91c51;fill-opacity:1;fill-rule:nonzero;stroke:none" transform="translate(266.03 442.886)"/><path d="M0 0v-34.414c-37.552-18.118-76.506-6.183-86.578-2.529 0 0 7.808 20.31 22.721 33.31 0 0 25.237-12.236 63.857 3.633" style="fill:#a91c51;fill-opacity:1;fill-rule:nonzero;stroke:none" transform="translate(266.03 477.491)"/><path d="M0 0c-55.063 12.618-67.872 65.769-67.872 65.769h-36.326c18.234-75.448 67.062-94.833 78.985-98.5 0 0 .828-.355 2.369-.917 0 0 7.931 21.03 20.932 32.118z" style="fill:#ed1654;fill-opacity:1;fill-rule:nonzero;stroke:none" transform="translate(202.173 473.859)"/><path d="M0 0c12.269-5.614 27.002-9.325 44.516-9.325 0 0-34.031-15.486-63.857-3.632L-2.056.778Z" style="fill:#781036;fill-opacity:1;fill-rule:nonzero;stroke:none" transform="translate(221.514 486.816)"/><path d="M0 0h34.414c0 71.887 62.519 96.933 62.519 96.933v71.123C21.485 149.821 2.1 100.993-1.567 89.071c0 0-19.464-45.48 1.567-89.071" style="fill:#ef5223;fill-opacity:1;fill-rule:nonzero;stroke:none" transform="translate(168.986 540.07)"/><path d="M0 0h-34.414c-18.118 37.552-6.183 76.506-2.529 86.578 0 0 20.31-7.808 33.31-22.721 0 0-12.236-25.237 3.633-63.857" style="fill:#ef5223;fill-opacity:1;fill-rule:nonzero;stroke:none" transform="translate(203.591 540.07)"/><path d="M0 0c12.618 55.063 65.769 67.872 65.769 67.872v36.326c-75.448-18.234-94.833-67.062-98.5-78.984 0 0-.355-.829-.917-2.37 0 0 21.029-7.931 32.118-20.932z" style="fill:#fec110;fill-opacity:1;fill-rule:nonzero;stroke:none" transform="translate(199.959 603.927)"/><path d="M0 0c-5.614-12.269-9.325-27.002-9.325-44.516 0 0-15.486 34.031-3.632 63.857L.778 2.056Z" style="fill:#c31f25;fill-opacity:1;fill-rule:nonzero;stroke:none" transform="translate(212.916 584.586)"/><path d="M0 0h-2.313v1.267h6.226V0H1.6v-5.869H0Z" style="fill:#000;fill-opacity:1;fill-rule:nonzero;stroke:none" transform="translate(419.664 531.583)"/><path d="M0 0h-1.495v7.136H.849l1.395-5.655 1.377 5.655h2.313V0H4.439v6h.001L3.006 0H1.433L.001 6.131H0Z" style="fill:#000;fill-opacity:1;fill-rule:nonzero;stroke:none" transform="translate(427.526 525.714)"/><path d="M0 0h23.65L35.2 51.15 47.3 0h23.1l18.15 70.4H70.125l-11-51.975-12.1 52.25h-23.1l-12.1-51.7-11 51.7h-18.7z" style="fill:#002823;fill-opacity:1;fill-rule:nonzero;stroke:none" transform="translate(469.425 622.21)"/><path d="M0 0c-10.48 0-18.975-9.111-18.975-20.35S-10.48-40.7 0-40.7c10.48 0 18.975 9.111 18.975 20.35S10.48 0 0 0m35.475-20.625c0-20.2-16.129-36.575-36.025-36.575-19.896 0-36.025 16.375-36.025 36.575 0 20.2 16.129 36.575 36.025 36.575 19.896 0 36.025-16.375 36.025-36.575" style="fill:#002823;fill-opacity:1;fill-rule:nonzero;stroke:none" transform="translate(596.2 677.76)"/><path d="M0 0h15.125a8.525 8.525 0 0 1 0 17.05H0Zm7.15-13.2H-1.1v-25.85h-16.5v70.404h35.2c12.758 0 23.1-9.482 23.1-21.179 0-7.631-4.403-14.32-11.006-18.048 0 0 12.656-2.577 12.656-31.177h-17.6v4.95s1.65 20.9-17.6 20.9" style="fill:#002823;fill-opacity:1;fill-rule:nonzero;stroke:none" transform="translate(658.9 660.985)"/><path d="M0 0h50.05v15.4h-33v55.55H0Z" style="fill:#002823;fill-opacity:1;fill-rule:nonzero;stroke:none" transform="translate(710.875 621.66)"/><path d="M0 0v-39.6h10.45c19.8 2.2 17.6 19.8 17.6 19.8S28.6 0 10.45 0zm45.65-21.45C45.65-55 10.45-55 10.45-55H-17.6v70.95h28.05c36.3 0 35.2-37.4 35.2-37.4" style="fill:#002823;fill-opacity:1;fill-rule:nonzero;stroke:none" transform="translate(786.5 676.935)"/><path d="M0 0h50.05v15.4h-33v55.55H0Z" style="fill:#002823;fill-opacity:1;fill-rule:nonzero;stroke:none" transform="translate(873.125 539.16)"/><path d="M0 0h50.05v15.4h-33v55.55H0Z" style="fill:#002823;fill-opacity:1;fill-rule:nonzero;stroke:none" transform="translate(931.975 539.16)"/><path d="M0 0h-17.875v14.3H0c4.101 0 7.425-3.201 7.425-7.15C7.425 3.201 4.101 0 0 0m-17.325 41.25h15.4a6.6 6.6 0 0 0 0-13.2h-15.4zm41.8-36.3c0 14.3-10.548 16.93-10.548 16.93 5.399 3.458 8.898 8.999 8.898 15.245 0 10.48-9.85 18.975-22 18.975h-36.3v-70.95h36.3c25.85 0 23.65 19.8 23.65 19.8" style="fill:#002823;fill-opacity:1;fill-rule:nonzero;stroke:none" transform="translate(492.525 554.285)"/><path d="M0 0h-17.875v14.3H0c4.101 0 7.425-3.201 7.425-7.15C7.425 3.201 4.101 0 0 0m-17.325 41.25h15.4a6.6 6.6 0 0 0 0-13.2h-15.4zm41.8-36.3c0 14.3-10.548 16.93-10.548 16.93 5.399 3.458 8.898 8.999 8.898 15.245 0 10.48-9.85 18.975-22 18.975h-36.3v-70.95h36.3c25.85 0 23.65 19.8 23.65 19.8" style="fill:#002823;fill-opacity:1;fill-rule:nonzero;stroke:none" transform="translate(763.95 554.01)"/><path d="m0 0-9.35-28.6H9.9Zm38.225-56.375h-19.25l-4.4 13.75h-28.05L-18.15-56.65h-18.7l25.3 71.5H12.1Z" style="fill:#002823;fill-opacity:1;fill-rule:nonzero;stroke:none" transform="translate(556.325 595.81)"/><path d="m0 0-9.35-28.6H9.9Zm38.225-56.375h-19.25l-4.4 13.75h-28.05L-18.15-56.65h-18.7l25.3 71.5H12.1Z" style="fill:#002823;fill-opacity:1;fill-rule:nonzero;stroke:none" transform="translate(828.575 595.81)"/><path d="M0 0v-15.4h-54.45v71.5H-.275V40.425h-36.85v-12.1h32.45v-14.85h-32.45V-.275z" style="fill:#002823;fill-opacity:1;fill-rule:nonzero;stroke:none" transform="translate(719.125 554.56)"/><path d="M0 0c-.55 6.05 7.425 6.325 7.425 6.325 11 0 13.2-8.25 13.2-8.25l14.85 5.5S31.35 20.9 9.35 20.9c0 0-27.5 0-27.5-20.9 0 0-1.1-14.3 15.4-19.25l16.5-4.4s8.8-1.65 8.8-7.15c0 0 .55-7.15-12.1-7.15 0 0-12.65.55-12.65 10.45h-17.6s0-24.75 31.35-24.75c0 0 28.6 0 28.6 19.8 0 0 1.1 12.65-9.35 19.25 0 0-6.05 3.3-21.45 6.6l-3.3.55S0-4.95 0-.55z" style="fill:#002823;fill-opacity:1;fill-rule:nonzero;stroke:none" transform="translate(616 590.585)"/><path d="M0 0h50.05v15.4h-33v55.55H0Z" style="fill:#002823;fill-opacity:1;fill-rule:nonzero;stroke:none" transform="translate(531.575 456.66)"/><path d="m0 0-9.35-28.6H9.9Zm38.225-56.375h-19.25l-4.4 13.75h-28.05L-18.15-56.65h-18.7l25.3 71.5H12.1Z" style="fill:#002823;fill-opacity:1;fill-rule:nonzero;stroke:none" transform="translate(623.975 513.31)"/><path d="M0 0c-5.031-14.187-18.57-24.348-34.481-24.348-20.2 0-36.575 16.375-36.575 36.575 0 20.199 16.375 36.575 36.575 36.575 15.344 0 28.481-9.45 33.911-22.846l-16.428-5.808c-2.88 7.304-9.624 12.429-17.483 12.429-10.48 0-18.975-9.111-18.975-20.35s8.495-20.35 18.975-20.35c8.36 0 15.458 5.799 17.987 13.852z" style="fill:#002823;fill-opacity:1;fill-rule:nonzero;stroke:none" transform="translate(523.707 480.183)"/><path d="M0 0c-.55 6.05 7.425 6.325 7.425 6.325 11 0 13.2-8.25 13.2-8.25l14.85 5.5S31.35 20.9 9.35 20.9c0 0-27.5 0-27.5-20.9 0 0-1.1-14.3 15.4-19.25l16.5-4.4s8.8-1.65 8.8-7.15c0 0 .55-7.15-12.1-7.15 0 0-12.65.55-12.65 10.45h-17.6s0-24.75 31.35-24.75c0 0 28.6 0 28.6 19.8 0 0 1.1 12.65-9.35 19.25 0 0-6.05 3.3-21.45 6.6l-3.3.55S0-4.95 0-.55z" style="fill:#002823;fill-opacity:1;fill-rule:nonzero;stroke:none" transform="translate(684.475 507.81)"/><path d="M0 0c-.55 6.05 7.425 6.325 7.425 6.325 11 0 13.2-8.25 13.2-8.25l14.85 5.5S31.35 20.9 9.35 20.9c0 0-27.5 0-27.5-20.9 0 0-1.1-14.3 15.4-19.25l16.5-4.4s8.8-1.65 8.8-7.15c0 0 .55-7.15-12.1-7.15 0 0-12.65.55-12.65 10.45h-17.6s0-24.75 31.35-24.75c0 0 28.6 0 28.6 19.8 0 0 1.1 12.65-9.35 19.25 0 0-6.05 3.3-21.45 6.6l-3.3.55S0-4.95 0-.55z" style="fill:#002823;fill-opacity:1;fill-rule:nonzero;stroke:none" transform="translate(750.475 507.26)"/><path d="M0 0c-5.031-14.187-18.57-24.348-34.481-24.348-20.2 0-36.575 16.375-36.575 36.575 0 20.199 16.375 36.575 36.575 36.575 15.344 0 28.481-9.45 33.911-22.846l-16.428-5.808c-2.88 7.304-9.624 12.429-17.483 12.429-10.48 0-18.975-9.111-18.975-20.35s8.495-20.35 18.975-20.35c8.361 0 15.458 5.799 17.987 13.852z" style="fill:#002823;fill-opacity:1;fill-rule:nonzero;stroke:none" transform="translate(896.607 479.634)"/><path d="M817.025 456.66h-17.6v71.5h17.6z" style="fill:#002823;fill-opacity:1;fill-rule:nonzero;stroke:none"/><path d="M0 0h-2.502v1.37h6.734V0H1.73v-6.348H0Z" style="fill:#002823;fill-opacity:1;fill-rule:nonzero;stroke:none" transform="translate(901.102 462.762)"/><path d="M0 0h-1.617v7.718H.919l1.508-6.117h.001l1.489 6.117h2.502V0H4.801v6.49h.001L3.252 0H1.55L.001 6.632H0Z" style="fill:#002823;fill-opacity:1;fill-rule:nonzero;stroke:none" transform="translate(909.607 456.414)"/></g></svg>