<svg xmlns="http://www.w3.org/2000/svg" xml:space="preserve" width="452.45544" height="24.850132" viewBox="0 0 452.45544 24.850132"><defs><clipPath id="a" clipPathUnits="userSpaceOnUse"><path d="M0 595.28h841.89V0H0Z"/></clipPath></defs><g clip-path="url(#a)" transform="matrix(1.33333 0 0 -1.33333 -129.305 87.108)"><path d="M0 0c-.083-.178-.237-.178-.317 0l-7.468 18.034h5.005L.549 9.676l3.825 8.697c.052.134.157.134.212 0l4.008-8.697 3.171 8.358h4.768L9.172 0c-.083-.203-.209-.203-.314 0L4.401 9.571Z" style="fill:#004b8d;fill-opacity:1;fill-rule:nonzero;stroke:none" transform="translate(104.764 46.845)"/><path d="M0 0c0 2.803-1.702 4.982-4.691 4.982-2.988 0-4.69-2.179-4.69-4.982 0-2.806 1.702-5.003 4.69-5.003C-1.702-5.003 0-2.806 0 0m-14.255 0c0 5.374 4.428 9.112 9.564 9.112C.444 9.112 4.873 5.374 4.873 0c0-5.376-4.429-9.15-9.564-9.15-5.136 0-9.564 3.774-9.564 9.15" style="fill:#004b8d;fill-opacity:1;fill-rule:nonzero;stroke:none" transform="translate(134.9 55.97)"/><path d="M0 0c2.148 0 2.937 1.2 2.937 2.93 0 1.736-.789 2.962-2.937 2.962h-1.754V0Zm7.679-7.889H2.515L.026-3.804h-1.78v-4.085h-4.77V9.93h6.76c4.796 0 7.494-3.037 7.494-7 0-2.56-1.125-4.613-3.222-5.756z" style="fill:#004b8d;fill-opacity:1;fill-rule:nonzero;stroke:none" transform="translate(148.527 54.948)"/><path d="M0 0h4.769v-13.81h7.575v-4.009H0Z" style="fill:#004b8d;fill-opacity:1;fill-rule:nonzero;stroke:none" transform="translate(158.485 64.879)"/><path d="M0 0c2.879 0 4.663 1.908 4.663 4.873 0 2.962-1.784 4.87-4.663 4.87h-1.602V0Zm-6.37 13.781H.523c5.132 0 9.015-3.376 9.015-8.908 0-5.533-3.883-8.911-9.015-8.911H-6.37Z" style="fill:#004b8d;fill-opacity:1;fill-rule:nonzero;stroke:none" transform="translate(179.4 51.097)"/><path d="M0 0c1.834 0 2.412.787 2.412 2.02S1.807 4.005 0 4.005h-2.883V0Zm-.576 7.473c1.045 0 1.518.517 1.518 1.358 0 .841-.418 1.446-1.467 1.446h-2.358V7.473Zm-6.918 6.576H-.21c3.536 0 5.842-1.628 5.842-4.352 0-1.989-.891-2.908-2.042-3.46 1.938-.546 3.589-1.938 3.589-4.666 0-3.4-2.647-5.342-7.074-5.342h-7.599z" style="fill:#004b8d;fill-opacity:1;fill-rule:nonzero;stroke:none" transform="translate(204.898 50.83)"/><path d="m0 0-1.782-4.143h3.617Zm-3.957-9.224H-8.62L.051 8.91c.079.183.238.183.314 0L9.014-9.224H4.086l-.681 1.516h-6.708z" style="fill:#004b8d;fill-opacity:1;fill-rule:nonzero;stroke:none" transform="translate(221.04 56.283)"/><path d="m0 0 3.457 2.595C4.327 1.519 5.399.654 7.179.654c1.419 0 2.255.422 2.255 1.416 0 .756-.576 1.128-1.755 1.523l-2.097.704c-2.594.867-4.427 2.44-4.427 5.377 0 3.506 2.907 5.31 6.077 5.31 3.146 0 4.874-1.122 5.924-2.358L10.43 9.775c-.736.765-1.519 1.28-2.937 1.28-1.152 0-1.729-.515-1.729-1.225 0-.681.394-1.031 1.26-1.311l2.356-.786c3.564-1.178 4.772-2.884 4.772-5.397 0-3.277-2.046-5.634-6.763-5.634C3.38-3.298 1.101-1.466 0 0" style="fill:#004b8d;fill-opacity:1;fill-rule:nonzero;stroke:none" transform="translate(230.264 50.099)"/><path d="M0 0h12.5v-4.004H4.77v-4.144h6.446v-3.805H4.77v-1.857h8.097v-4.009H0Z" style="fill:#004b8d;fill-opacity:1;fill-rule:nonzero;stroke:none" transform="translate(246.59 64.879)"/><path d="M0 0c1.835 0 2.412.787 2.412 2.02S1.807 4.005 0 4.005h-2.881V0Zm-.576 7.473c1.05 0 1.52.517 1.52 1.358 0 .841-.42 1.446-1.467 1.446h-2.358V7.473Zm-6.918 6.576H-.21c3.536 0 5.844-1.628 5.844-4.352 0-1.989-.888-2.908-2.044-3.46 1.939-.546 3.589-1.938 3.589-4.666 0-3.4-2.646-5.342-7.074-5.342h-7.599z" style="fill:#004b8d;fill-opacity:1;fill-rule:nonzero;stroke:none" transform="translate(269.258 50.83)"/><path d="m0 0-1.781-4.143h3.616Zm-3.957-9.224H-8.62L.051 8.91c.079.183.239.183.316 0L9.014-9.224H4.086l-.677 1.516h-6.71z" style="fill:#004b8d;fill-opacity:1;fill-rule:nonzero;stroke:none" transform="translate(285.4 56.283)"/><path d="M0 0h4.765v-13.81h7.574v-4.009H0Z" style="fill:#004b8d;fill-opacity:1;fill-rule:nonzero;stroke:none" transform="translate(296.07 64.879)"/><path d="M0 0h4.768v-13.81h7.574v-4.009H0Z" style="fill:#004b8d;fill-opacity:1;fill-rule:nonzero;stroke:none" transform="translate(310.61 64.879)"/><path d="M0 0c-5.003 0-9.273 3.773-9.273 9.15 0 5.373 4.246 9.112 9.014 9.112 3.85 0 6.211-1.618 7.703-3.816L3.855 12c-.683 1.053-1.783 2.131-4.035 2.131-2.622 0-4.218-2.178-4.218-4.981 0-2.806 1.649-5.005 4.376-5.005 2.303 0 3.431 1.043 4.191 2.459l3.667-2.356C6.08 1.286 3.618 0 0 0" style="fill:#004b8d;fill-opacity:1;fill-rule:nonzero;stroke:none" transform="translate(339.906 46.82)"/><path d="M0 0h4.768v-13.81h7.574v-4.009H0Z" style="fill:#004b8d;fill-opacity:1;fill-rule:nonzero;stroke:none" transform="translate(349.58 64.879)"/><path d="m0 0-1.781-4.143h3.615Zm-3.956-9.224h-4.666L.054 8.91c.077.183.237.183.313 0L9.013-9.224H4.089l-.681 1.516h-6.711z" style="fill:#004b8d;fill-opacity:1;fill-rule:nonzero;stroke:none" transform="translate(371.565 56.283)"/><path d="m0 0 3.458 2.595C4.323 1.519 5.397.654 7.179.654c1.416 0 2.255.422 2.255 1.416 0 .756-.579 1.128-1.757 1.523l-2.095.704c-2.596.867-4.43 2.44-4.43 5.377 0 3.506 2.906 5.31 6.08 5.31 3.143 0 4.873-1.122 5.923-2.358L10.43 9.775c-.734.765-1.522 1.28-2.936 1.28-1.15 0-1.729-.515-1.729-1.225 0-.681.392-1.031 1.256-1.311l2.36-.786c3.563-1.178 4.77-2.884 4.77-5.397 0-3.277-2.046-5.634-6.762-5.634C3.38-3.298 1.099-1.466 0 0" style="fill:#004b8d;fill-opacity:1;fill-rule:nonzero;stroke:none" transform="translate(380.79 50.099)"/><path d="m0 0 3.458 2.595C4.323 1.519 5.395.654 7.177.654c1.415 0 2.257.422 2.257 1.416 0 .756-.58 1.128-1.757 1.523l-2.097.704c-2.594.867-4.428 2.44-4.428 5.377 0 3.506 2.908 5.31 6.078 5.31 3.145 0 4.875-1.122 5.924-2.358L10.43 9.775c-.737.765-1.524 1.28-2.938 1.28-1.148 0-1.728-.515-1.728-1.225 0-.681.393-1.031 1.258-1.311l2.357-.786c3.562-1.178 4.767-2.884 4.767-5.397 0-3.277-2.041-5.634-6.759-5.634C3.377-3.298 1.098-1.466 0 0" style="fill:#004b8d;fill-opacity:1;fill-rule:nonzero;stroke:none" transform="translate(395.676 50.099)"/><path d="M412.106 64.878h4.772V47.059h-4.772z" style="fill:#004b8d;fill-opacity:1;fill-rule:nonzero;stroke:none"/><path d="M0 0c-5.005 0-9.281 3.773-9.281 9.15 0 5.373 4.249 9.112 9.017 9.112 3.849 0 6.212-1.618 7.704-3.816L3.851 12c-.679 1.053-1.781 2.131-4.037 2.131-2.617 0-4.218-2.178-4.218-4.981 0-2.806 1.652-5.005 4.377-5.005 2.307 0 3.435 1.043 4.191 2.459l3.671-2.356C6.078 1.286 3.614 0 0 0" style="fill:#004b8d;fill-opacity:1;fill-rule:nonzero;stroke:none" transform="translate(428.485 46.82)"/></g></svg>