<svg xmlns="http://www.w3.org/2000/svg" width="261.22678" height="195.96416" fill="none" viewBox="0 0 261.22678 195.96416"><g style="fill:#002063"><path d="M491.602 147.545H752.83v55.25H491.602z" style="fill:#002063;fill-opacity:1;stroke:none;stroke-width:.500001" transform="translate(-491.602 -47.007)"/><path d="M534.109 92.248h176.614v108H534.11z" style="fill:#002063;fill-opacity:1;stroke:none;stroke-width:.500001" transform="translate(-491.602 -47.007)"/></g><g style="fill:#fff"><path d="M671.623 194.926c-3.188-1.787-5.635-4.343-7.365-7.64q-2.604-4.947-2.61-11.358c0-4.505.877-8.433 2.632-11.824 1.755-3.414 4.202-6.037 7.365-7.897 3.164-1.857 6.812-2.787 10.923-2.787 4.112 0 7.804.93 10.945 2.812 3.186 1.904 5.633 4.574 7.366 8.013 1.73 3.436 2.61 7.364 2.61 11.777s-.855 8.013-2.588 11.333a18.8 18.8 0 0 1-7.366 7.619c-3.163 1.787-6.811 2.692-10.967 2.692-4.155 0-7.76-.905-10.945-2.74m22.535-19.579L682.5 160.712l-11.545 14.819 11.614 14.818 11.59-15.03zm-105.545-20.88h15.332L618.33 196.6h-12.4l-2.403-8.246h-7.712l-1.778-9.13h6.812l-4.064-13.98-9.281 31.356h-12.378l13.508-42.133zm-35.467 32.843v-13.867h.438l2.726 6.479h14.546v-9.126h-17.71v-7.156h18.77v-9.173H541.67V196.6h30.62v-9.29zm180.684-32.843v10.797c0 3.738.275 7.896.854 12.473h-.278l-4.666-6.9-11.52-16.348h-9.284v18.602h.441l2.723 6.48h-3.164v17.049h11.361v-12.194c0-4.413-.206-8.199-.647-11.335h.278l4.503 6.967 11.36 16.562h9.375v-42.153h-11.361zm-199.548 22.807c-2.172-2.043-5.82-4.017-10.901-5.876l-2.147-.813c-2.1-.722-3.695-1.324-4.709-1.788a7.7 7.7 0 0 1-2.102-1.185 2 2 0 0 1-.601-1.463c0-.766.438-1.371 1.317-1.86.876-.485 2.056-.718 3.51-.718 1.869 0 3.302.416 4.318 1.276 1.014.839 1.5 1.977 1.43 3.37h12.285c.069-2.812-.623-5.318-2.056-7.55q-2.182-3.345-6.302-5.295c-2.725-1.3-5.913-1.952-9.606-1.952h-.046v7.55l-5.567-6.992c-1.198.256-2.378.555-3.46 1-2.657 1.046-4.713 2.53-6.167 4.482-1.477 1.904-2.194 4.11-2.194 6.573q0 6.026 6.374 9.548c2.077 1.113 4.64 2.203 7.734 3.297 3.464 1.23 5.958 2.229 7.46 3.02q2.145 1.181 2.146 2.648c0 .974-.507 1.648-1.546 2.16q-1.564.765-4.342.765c-2.331 0-4.156-.583-5.495-1.72-1.339-1.16-1.987-2.67-1.893-4.575h-12.284c-.069 3.206.692 6.04 2.31 8.524 1.614 2.487 3.923 4.413 6.97 5.829q4.332 2.023 9.976 2.093v-7.525l5.704 7.153a22 22 0 0 0 4.571-1.208c2.772-1.068 4.897-2.553 6.374-4.505 1.477-1.95 2.218-4.227 2.218-6.855q.005-4.32-3.28-7.383zm120.508 0c-2.172-2.043-5.82-4.017-10.898-5.876l-2.147-.813c-2.102-.722-3.695-1.324-4.712-1.788a7.7 7.7 0 0 1-2.1-1.185 2 2 0 0 1-.6-1.463c0-.766.438-1.371 1.314-1.86q1.323-.72 3.51-.718c1.872 0 3.302.416 4.319 1.276 1.016.839 1.501 1.977 1.432 3.37h12.285c.069-2.812-.626-5.318-2.056-7.55q-2.183-3.345-6.305-5.295c-2.725-1.3-5.91-1.952-9.606-1.952h-.046v7.55l-5.564-6.992c-1.181.231-2.34.565-3.463 1-2.657 1.046-4.712 2.53-6.165 4.482-1.48 1.904-2.196 4.11-2.196 6.573q0 6.026 6.374 9.548c2.077 1.113 4.643 2.203 7.735 3.297q5.199 1.838 7.459 3.02 2.15 1.181 2.146 2.648c0 .974-.507 1.648-1.545 2.16-1.04.51-2.494.765-4.34.765-2.334 0-4.159-.583-5.498-1.72-1.339-1.16-1.984-2.67-1.893-4.575h-12.284q-.11 4.802 2.31 8.524c1.617 2.487 3.926 4.413 6.973 5.829 2.885 1.349 6.233 2.045 9.975 2.093v-7.525l5.704 7.153a22 22 0 0 0 4.572-1.208c2.77-1.068 4.894-2.553 6.37-4.505 1.48-1.95 2.219-4.227 2.219-6.855q.005-4.32-3.28-7.383z" style="fill:#fff;stroke-width:.999999" transform="translate(-491.602 -47.007)"/><path d="M590.96 139.082c-3.192-1.772-5.643-4.307-7.376-7.576q-2.609-4.903-2.613-11.26c0-4.466.877-8.36 2.635-11.723 1.758-3.385 4.208-5.985 7.376-7.83q4.758-2.762 10.94-2.762c4.114 0 7.815.922 10.96 2.788 3.191 1.887 5.642 4.535 7.377 7.944 1.733 3.407 2.614 7.3 2.614 11.676s-.856 7.945-2.592 11.236a18.74 18.74 0 0 1-7.376 7.554c-3.168 1.772-6.822 2.67-10.983 2.67s-7.771-.898-10.962-2.717m22.593-19.411-11.678-14.51-11.563 14.691 11.632 14.692 11.61-14.9zm-41.394-16.905q-4.719-3.797-13.11-3.797h-6.823v9.05l-8.764-9.053h-1.341v41.773h11.446v-19.896h.047l5.967 7.485h.276c3.33 0 6.292-.597 8.858-1.816s4.578-2.95 6.01-5.185c1.436-2.163 2.153-4.788 2.153-7.85q0-6.909-4.719-10.708m-9.156 15.132c-1.342 1.057-3.168 1.61-5.459 1.61h-3.974v-11.489h3.977c2.29 0 4.117.482 5.458 1.45q2.013 1.45 2.012 4.007 0 2.826-2.014 4.444zm98.325 3.68c-2.175-2.026-5.828-3.983-10.914-5.826l-2.15-.807c-2.106-.715-3.7-1.312-4.719-1.772a7.7 7.7 0 0 1-2.103-1.175 1.98 1.98 0 0 1-.601-1.45c0-.76.438-1.36 1.316-1.844q1.324-.715 3.516-.712c1.874 0 3.306.412 4.324 1.265 1.018.831 1.504 1.96 1.435 3.341h12.3c.071-2.787-.624-5.272-2.056-7.485q-2.186-3.315-6.314-5.25c-2.73-1.288-5.92-1.935-9.62-1.935h-.047v7.485l-5.572-6.932c-1.183.23-2.344.56-3.469.99-2.66 1.038-4.719 2.51-6.173 4.445-1.482 1.888-2.2 4.076-2.2 6.516q0 5.975 6.383 9.467c2.081 1.103 4.65 2.185 7.747 3.269 3.469 1.219 5.966 2.21 7.47 2.994q2.153 1.172 2.15 2.625c0 .966-.508 1.635-1.548 2.141s-2.498.76-4.347.76c-2.337 0-4.164-.578-5.505-1.706-1.341-1.15-1.987-2.648-1.896-4.536h-12.303q-.11 4.761 2.313 8.451c1.62 2.466 3.932 4.376 6.985 5.78q4.332 2.005 9.99 2.074v-7.46l5.712 7.091c1.565-.234 3.1-.635 4.578-1.197 2.774-1.06 4.901-2.531 6.38-4.466 1.482-1.934 2.222-4.19 2.222-6.797q.007-4.282-3.284-7.32zm5.48-22.612v9.188h12.303v32.631h11.378v-40.116l6.01 7.485h6.292v-9.191z" style="fill:#fff;stroke-width:1" transform="translate(-491.602 -47.007)"/></g><g fill="#fff" style="fill:#002063;stroke-width:.36248"><path d="M275.05-101.872c0-.301-.017-.469-.193-.661-.109-.134-.033-.268.092-.268h1.584v1.222c0 1.197 1.173 1.908 2.237 2.26l-.394.744c-.117.218-.569.134-1.357-.351-.453-.277-.88-.645-1.165-1.03a4.8 4.8 0 0 1-1.248 1.214c-.562.368-1.274.711-1.39.485l-.42-.795c1.223-.477 2.254-1.272 2.254-2.435zm6.041 7.448h-5.237c-1.114 0-1.55-.285-1.55-1.214v-1.33c0-.184-.067-.318-.193-.477-.109-.134-.033-.268.092-.268h1.56v1.874c0 .285.091.369.376.369h4.952zm-1.6-2.82v-4.762c0-.318-.059-.485-.226-.678-.109-.134-.034-.26.1-.26h1.567v5.7zm4.634-5.021c0-.318-.017-.469-.193-.678-.117-.134-.042-.26.092-.26h1.567v1.03h2.087v1.004h-.964c.285.318.461.711.461 1.18 0 1.155-.855 2.033-2.38 2.033s-2.38-.878-2.38-2.033c0-.477.168-.87.445-1.18h-.964v-1.004h2.23zm5.85 6.803v1.038h-5.146c-1.106 0-1.55-.285-1.55-1.214v-.962c0-.184-.067-.318-.193-.477-.109-.134-.034-.268.092-.268h1.56v1.515c0 .284.091.368.376.368zm-4.183-4.569c0-.62-.368-1.096-.997-1.096-.628 0-.997.477-.997 1.096 0 .586.36 1.071.997 1.071s.997-.485.997-1.071m2.632 2.912v-4.895c0-.318-.042-.469-.218-.678-.118-.134-.042-.26.092-.26h1.567v2.16h1.047v1.037h-1.047v2.628h-1.44zm19.55-7.966v7.205h3.36v1.305h-5.137v-7.406c0-.368-.059-.552-.268-.786-.134-.16-.05-.31.11-.31h1.934zM293.1-96.24c.653.527 1.692.853 2.404.853.89 0 1.425-.385 1.425-1.113 0-.569-.226-.928-.955-1.297-.83-.418-1.509-.678-2.137-1.221-.57-.494-.972-1.113-.972-2.009 0-1.272 1.047-2.159 2.807-2.159.964 0 1.768.16 2.522.477v1.347c0 .201-.184.26-.335.134-.62-.518-1.248-.753-1.977-.753-.763 0-1.207.36-1.207.954 0 .419.16.711.444.946.545.443 1.223.761 1.818 1.046 1.14.544 1.802 1.171 1.802 2.502 0 1.665-1.408 2.343-3.2 2.343-1.325 0-2.993-.628-2.783-1.172l.344-.887z" style="fill:#002063;stroke-width:.36248" transform="matrix(2.75511 0 0 2.76245 -714.059 452.554)"/><path d="M302.066-101.889a4.507 4.507 0 0 0-4.509 4.502 4.507 4.507 0 0 0 4.51 4.502 4.506 4.506 0 0 0 4.507-4.502 4.506 4.506 0 0 0-4.508-4.502m0 7.481a2.98 2.98 0 0 1-2.983-2.979c0-1.64 1.34-2.979 2.983-2.979a2.99 2.99 0 0 1 2.983 2.98 2.987 2.987 0 0 1-2.983 2.978m13.97-8.535c1.792 0 2.932.82 2.932 2.142 0 .829-.327 1.44-.964 1.824.888.335 1.424.98 1.424 2.118 0 1.606-1.298 2.435-3.259 2.435h-2.975v-7.415c0-.368-.067-.552-.277-.786-.134-.168-.04-.318.11-.318zm-1.066 3.473h.94c.82 0 1.264-.31 1.264-1.122 0-.811-.444-1.138-1.299-1.138h-.905zm1.081 1.205h-1.08v2.619h1.09c1.03 0 1.515-.402 1.515-1.322s-.502-1.297-1.533-1.297zm5.095-.728c-.243.167-.385.075-.385-.176v-1.147c.645-.284 1.617-.46 2.346-.46 1.693 0 2.665.653 2.665 2.009v4.334h-1.685v-.67c-.477.587-1.173.863-1.902.863-1.223 0-2.06-.787-2.06-1.942 0-1.314.904-2.125 2.831-2.125h1.106v-.46c0-.603-.385-.854-1.056-.854-.67 0-1.365.301-1.86.62zm2.916 1.824h-1.114c-.838 0-1.173.385-1.173.962 0 .477.285.812.787.812.587 0 1.115-.276 1.5-.711zm4.81-3.398v.603c.444-.435.997-.803 1.76-.803 1.3 0 2.296.728 2.296 2.075v4.268h-1.718v-4.117c0-.687-.31-.996-.997-.996-.478 0-.897.192-1.29.544v4.56h-1.718v-5.029c0-.368-.067-.56-.277-.787-.142-.167-.05-.318.11-.318zm5.506 6.134v-7.665c0-.368-.059-.552-.277-.787-.134-.167-.042-.31.117-.31h1.87v5.022l2.178-2.402h1.97l-2.347 2.62 2.631 3.513h-1.894l-1.894-2.57c-.192-.275-.285-.317-.494-.317h-.15v2.879h-1.719z" style="fill:#002063;stroke-width:.36248" transform="matrix(2.75511 0 0 2.76245 -714.059 452.554)"/></g><g fill="#fff" style="fill:#002063;stroke-width:.362678"><path d="M-62.034-49.004c-.31-1.17-1.534-2.26-2.464-2.803a7 7 0 0 0-.327-.176c-.61-.285-1.148-.46-1.609-.536-.26-.04-.636-.083-.87.017-.378.16-.236.653-.144.988.042.167.093.292.227.51.134.226.47.494 1.072.745-.125.067-.419.15-.62.21.226.342.495.67.796.928.612.536.838.552.838.552s.076-.36.042-.72a.52.52 0 0 0-.168-.35 3.3 3.3 0 0 1-.678-.78c-.394-.602-.872-1.614-.042-1.74.88.703 1.39 1.942 1.416 2.854.042 1.732-1.03 3.247-2.053 3.991-3.176 2.327-6.26 1.088-6.26 1.088s1.031 1.482 2.925 1.967c2.17.56 5.078-.126 5.765-2.544.176.31.042 1.155.042 1.155s1.265-.954 1.87-2.327c.393-.903.535-1.908.233-3.029" style="fill:#002063;stroke-width:.362678" transform="matrix(2.7461 0 0 2.76847 318.672 155.382)"/><path d="M-72.643-51.824a6 6 0 0 0 .11 2.15 3.9 3.9 0 0 1 .586-1.598c.72-1.104 2.027-1.874 3.31-2.042 1.684-.217 3.41.185 4.784 1.18.94.678 1.626 1.682 1.626 1.682s.176-1.012-.302-2.083c-.653-1.465-2.053-2.695-3.502-2.745-.46-.017-.99.092-1.24.142.008-.234.946-.66.946-.66s-2.405-.938-4.307.36c-.695.476-1.7 1.43-1.994 3.472l-.025.142" style="fill:#002063;stroke-width:.362678" transform="matrix(2.7461 0 0 2.76847 318.672 155.382)"/><path d="M-67.908-46.116c.553-.92.57-1.967.25-3.013-.225-.687-.62-.82-1.365-1.113.15-.092.478-.193.687-.25-.595-.67-1.475-1.165-2.313-1.022-.326.05-.637.15-.88.56.503-.075 1.25.168 1.651.486 1.517 1.213 1.4 3.397-.016 4.426-.386.277-1.023.528-1.492.536-.695.017-1.282-.084-1.768-.276a5 5 0 0 0 2.145-.15c-.52-.394-.93-.963-1.098-1.214-.494-.737-2.145-3.48-.25-7.188-.655.15-1.29.426-1.86 1.096-.756.878-.957 1.95-.898 2.652.067.754.335 1.272.394 1.398-.335-.067-.796-.82-.796-.82s-.084.552-.084.795c0 0-.285 3.615 3.26 4.62 1.66.468 3.595-.093 4.45-1.524m15.56-6.954h-2.187c-1.55 2.05-2.849 3.398-3.335 3.75.394.183 1.333 1.564 2.388 4.192h2.213c-1.048-2.636-1.986-4.034-2.297-4.302.403-.334 1.601-1.598 3.218-3.648m-7.575.008c.218.368.67.435.595 1.021l-.997 6.93h1.835l1.14-7.95h-2.58zm12.712 2.318c-.075.544-.268.753-.62.753h-2.17l.217-1.506h2.17c.353 0 .487.21.403.753m-.335 3.188c-.084.62-.319.88-.712.88h-2.23l.26-1.825h2.18c.41 0 .586.293.493.945m2.38-3.598c.176-1.247-.125-1.908-1.71-1.908h-5.253c.218.368.67.435.595 1.021l-.997 6.93h4.541c1.29 0 2.18-.545 2.414-2.143.176-1.239-.11-2.042-.847-2.042.688 0 1.107-.753 1.266-1.858m6.444 2.025c.31-2.167.05-2.418-1.559-2.418s-1.944.25-2.254 2.418c-.319 2.201-.067 2.52 1.542 2.52 1.61 0 1.952-.319 2.27-2.52m1.97-.025c-.47 3.272-1.929 4.218-4.476 4.218s-3.737-.946-3.268-4.218c.46-3.23 1.902-4.084 4.458-4.084s3.746.854 3.285 4.084m-57.668.06c.302-2.629 1.416-4.144 3.05-4.144s2.397 1.515 2.146 4.143c-.252 2.627-1.35 4.142-3.017 4.142-1.668 0-2.48-1.515-2.179-4.142m3.402 0c.193-1.724 0-2.712-.51-2.712-.512 0-.914.988-1.099 2.712-.184 1.723.017 2.71.537 2.71.494 0 .888-.986 1.072-2.71m-4.877 3.95h-4.508l.134-1.298c.913-1.07 1.61-1.883 2.17-2.569.545-.66 1.107-1.288 1.182-1.966.05-.469-.126-.82-.486-.82-.394 0-.645.41-.704.97h-1.76c.151-1.405 1.25-2.41 2.657-2.41s2.22.946 2.086 2.251c-.1.954-.863 1.875-1.634 2.762a65 65 0 0 1-1.55 1.74c.343-.066.78-.108 1.198-.108h1.66l-.445 1.43zm11.598 0h-4.509l.135-1.298c.913-1.07 1.608-1.883 2.17-2.569.545-.66 1.106-1.288 1.181-1.966.05-.469-.125-.82-.486-.82-.393 0-.645.41-.703.97h-1.769c.151-1.405 1.25-2.41 2.657-2.41s2.22.946 2.086 2.251c-.1.954-.863 1.875-1.634 2.762a65 65 0 0 1-1.55 1.74c.344-.066.78-.108 1.198-.108h1.66l-.445 1.43zm4.55-5.022c1.282 0 2.053.988 1.894 2.52-.176 1.648-1.308 2.702-2.84 2.702-1.534 0-2.347-.979-2.247-2.485h1.768c0 .678.243 1.063.63 1.063.46 0 .812-.52.904-1.33.075-.695-.15-1.147-.62-1.147-.21 0-.46.108-.67.268h-1.745l.997-4.47h3.922l-.149 1.4h-3.596v.11l1.081.333-.276 1.23c.251-.126.62-.2.947-.2z" style="fill:#002063;stroke-width:.362678" transform="matrix(2.7461 0 0 2.76847 318.672 155.382)"/></g><path d="M534.121 88.982h176.603v3.266H534.12zM491.977 202.795h260.852v3.266H491.977z" style="fill:#00a1e9;fill-opacity:1;stroke:none;stroke-width:.5" transform="translate(-491.602 -47.007)"/></svg>